<svg xmlns="http://www.w3.org/2000/svg" xmlns:xlink="http://www.w3.org/1999/xlink" viewBox="0 0 399.9 413.03"><defs><style>.cls-1{fill:none;}.cls-2{clip-path:url(#clip-path);}.cls-3{fill:#ebebeb;}.cls-4{fill:#1a2e35;}.cls-5{fill:#ffc700;}.cls-6{opacity:0.1;}.cls-7{clip-path:url(#clip-path-5);}.cls-8{clip-path:url(#clip-path-6);}.cls-9{clip-path:url(#clip-path-7);}.cls-10{fill:#2b454e;}.cls-11{opacity:0.2;}.cls-12{clip-path:url(#clip-path-11);}.cls-13{clip-path:url(#clip-path-12);}.cls-14{clip-path:url(#clip-path-13);}.cls-15{clip-path:url(#clip-path-14);}.cls-16{clip-path:url(#clip-path-15);}.cls-17{clip-path:url(#clip-path-16);}.cls-18{clip-path:url(#clip-path-17);}.cls-19{clip-path:url(#clip-path-18);}.cls-20{clip-path:url(#clip-path-19);}.cls-21{clip-path:url(#clip-path-20);}.cls-22{clip-path:url(#clip-path-21);}.cls-23{clip-path:url(#clip-path-22);}.cls-24{clip-path:url(#clip-path-23);}.cls-25{clip-path:url(#clip-path-24);}.cls-26{clip-path:url(#clip-path-25);}.cls-27{clip-path:url(#clip-path-26);}.cls-28{clip-path:url(#clip-path-27);}.cls-29{clip-path:url(#clip-path-28);}.cls-30{fill:#fff;}.cls-31{opacity:0.4;}.cls-32{clip-path:url(#clip-path-29);}.cls-33{clip-path:url(#clip-path-30);}.cls-34{clip-path:url(#clip-path-31);}.cls-35{clip-path:url(#clip-path-32);}.cls-36{clip-path:url(#clip-path-33);}.cls-37{fill:#dbdbdb;}.cls-38{clip-path:url(#clip-path-34);}.cls-39{clip-path:url(#clip-path-35);}.cls-40{clip-path:url(#clip-path-36);}.cls-41{clip-path:url(#clip-path-37);}.cls-42{clip-path:url(#clip-path-38);}.cls-43{clip-path:url(#clip-path-39);}.cls-44{clip-path:url(#clip-path-40);}.cls-45{clip-path:url(#clip-path-41);}.cls-46{clip-path:url(#clip-path-42);}.cls-47{clip-path:url(#clip-path-43);}.cls-48{clip-path:url(#clip-path-44);}.cls-49{clip-path:url(#clip-path-45);}.cls-50{clip-path:url(#clip-path-46);}.cls-51{fill:#375a64;}</style><clipPath id="clip-path" transform="translate(-41.97 -41.89)"><rect class="cls-1" width="483.84" height="483.84"/></clipPath><clipPath id="clip-path-5" transform="translate(-41.97 -41.89)"><rect class="cls-1" x="84" y="284.02" width="15.81" height="16.37"/></clipPath><clipPath id="clip-path-6" transform="translate(-41.97 -41.89)"><rect class="cls-1" x="43.28" y="283.17" width="15.89" height="16.32"/></clipPath><clipPath id="clip-path-7" transform="translate(-41.97 -41.89)"><rect class="cls-1" x="75.66" y="265.84" width="16.25" height="18.92"/></clipPath><clipPath id="clip-path-11" transform="translate(-41.97 -41.89)"><rect class="cls-1" x="168.43" y="221.93" width="19.85" height="58.5"/></clipPath><clipPath id="clip-path-12" transform="translate(-41.97 -41.89)"><rect class="cls-1" x="314" y="242.92" width="31.36" height="56.89"/></clipPath><clipPath id="clip-path-13" transform="translate(-41.97 -41.89)"><rect class="cls-1" x="255.34" y="203.36" width="64.91" height="72.6"/></clipPath><clipPath id="clip-path-14" transform="translate(-41.97 -41.89)"><rect class="cls-1" x="258.57" y="206.95" width="3.74" height="3.76"/></clipPath><clipPath id="clip-path-15" transform="translate(-41.97 -41.89)"><rect class="cls-1" x="256.88" y="218.8" width="3.74" height="3.76"/></clipPath><clipPath id="clip-path-16" transform="translate(-41.97 -41.89)"><rect class="cls-1" x="254.8" y="231.32" width="3.74" height="3.76"/></clipPath><clipPath id="clip-path-17" transform="translate(-41.97 -41.89)"><rect class="cls-1" x="252.71" y="243.84" width="3.74" height="3.76"/></clipPath><clipPath id="clip-path-18" transform="translate(-41.97 -41.89)"><rect class="cls-1" x="259.8" y="263.81" width="3.74" height="3.76"/></clipPath><clipPath id="clip-path-19" transform="translate(-41.97 -41.89)"><rect class="cls-1" x="271.62" y="266.69" width="3.74" height="3.76"/></clipPath><clipPath id="clip-path-20" transform="translate(-41.97 -41.89)"><rect class="cls-1" x="283.44" y="269.57" width="3.74" height="3.76"/></clipPath><clipPath id="clip-path-21" transform="translate(-41.97 -41.89)"><rect class="cls-1" x="295.26" y="272.46" width="3.74" height="3.76"/></clipPath><clipPath id="clip-path-22" transform="translate(-41.97 -41.89)"><rect class="cls-1" x="307.08" y="275.33" width="3.74" height="3.76"/></clipPath><clipPath id="clip-path-23" transform="translate(-41.97 -41.89)"><rect class="cls-1" x="250.63" y="256.36" width="3.74" height="3.76"/></clipPath><clipPath id="clip-path-24" transform="translate(-41.97 -41.89)"><rect class="cls-1" x="188.89" y="231.35" width="54.65" height="54.65"/></clipPath><clipPath id="clip-path-25" transform="translate(-41.97 -41.89)"><rect class="cls-1" x="262.2" y="242.79" width="54.65" height="54.65"/></clipPath><clipPath id="clip-path-26" transform="translate(-41.97 -41.89)"><rect class="cls-1" x="262.42" y="242.79" width="54.43" height="35.22"/></clipPath><clipPath id="clip-path-27" transform="translate(-41.97 -41.89)"><rect class="cls-1" x="261.75" y="240.53" width="56.72" height="35.39"/></clipPath><clipPath id="clip-path-28" transform="translate(-41.97 -41.89)"><rect class="cls-1" x="241.99" y="277.77" width="15.52" height="10.86"/></clipPath><clipPath id="clip-path-29" transform="translate(-41.97 -41.89)"><rect class="cls-1" x="142.03" y="284.74" width="44.68" height="62.9"/></clipPath><clipPath id="clip-path-30" transform="translate(-41.97 -41.89)"><rect class="cls-1" x="179.87" y="324.59" width="14.73" height="38.9"/></clipPath><clipPath id="clip-path-31" transform="translate(-41.97 -41.89)"><rect class="cls-1" x="292.53" y="324.72" width="15.48" height="38.83"/></clipPath><clipPath id="clip-path-32" transform="translate(-41.97 -41.89)"><rect class="cls-1" x="214.81" y="337.97" width="58.5" height="41.02"/></clipPath><clipPath id="clip-path-33" transform="translate(-41.97 -41.89)"><rect class="cls-1" x="214.81" y="338.5" width="5.98" height="40.49"/></clipPath><clipPath id="clip-path-34" transform="translate(-41.97 -41.89)"><rect class="cls-1" x="268.75" y="328.73" width="35.35" height="59.71"/></clipPath><clipPath id="clip-path-35" transform="translate(-41.97 -41.89)"><rect class="cls-1" x="207.47" y="317.52" width="2.74" height="79.78"/></clipPath><clipPath id="clip-path-36" transform="translate(-41.97 -41.89)"><rect class="cls-1" x="200.92" y="322.01" width="3.74" height="3.76"/></clipPath><clipPath id="clip-path-37" transform="translate(-41.97 -41.89)"><rect class="cls-1" x="201.6" y="333.96" width="3.74" height="3.76"/></clipPath><clipPath id="clip-path-38" transform="translate(-41.97 -41.89)"><rect class="cls-1" x="202.04" y="346.65" width="3.74" height="3.76"/></clipPath><clipPath id="clip-path-39" transform="translate(-41.97 -41.89)"><rect class="cls-1" x="202.47" y="359.33" width="3.74" height="3.76"/></clipPath><clipPath id="clip-path-40" transform="translate(-41.97 -41.89)"><rect class="cls-1" x="202.91" y="372.02" width="3.74" height="3.76"/></clipPath><clipPath id="clip-path-41" transform="translate(-41.97 -41.89)"><rect class="cls-1" x="203.34" y="384.7" width="3.74" height="3.76"/></clipPath><clipPath id="clip-path-42" transform="translate(-41.97 -41.89)"><rect class="cls-1" x="165.62" y="405.61" width="46.97" height="19.05"/></clipPath><clipPath id="clip-path-43" transform="translate(-41.97 -41.89)"><rect class="cls-1" x="155.15" y="381.73" width="19.54" height="50.69"/></clipPath><clipPath id="clip-path-44" transform="translate(-41.97 -41.89)"><rect class="cls-1" x="272.06" y="405.47" width="46.95" height="19.14"/></clipPath><clipPath id="clip-path-45" transform="translate(-41.97 -41.89)"><rect class="cls-1" x="309.91" y="381.71" width="19.65" height="50.66"/></clipPath><clipPath id="clip-path-46" transform="translate(-41.97 -41.89)"><rect class="cls-1" x="308.42" y="330.04" width="72.68" height="37.92"/></clipPath></defs><g id="图层_2" data-name="图层 2"><g id="图层_1-2" data-name="图层 1"><g class="cls-2"><g class="cls-2"><g class="cls-2"><path class="cls-3" d="M89.64,306.89l-14.35.27-7.27.11c-2.43.05-4.87,0-7.31.06h-.43v-.44l-.05-12.22v-.49h.48l14.47.06c4.82,0,9.64.11,14.46.16h.27v.26c0,2.07-.09,4.13-.13,6.17Zm0,0-.13-6.16c-.05-2-.11-4.06-.13-6.06l.26.26c-4.82.05-9.64.16-14.46.16l-14.47.06.49-.48-.06,12.22-.43-.43c2.39,0,4.77,0,7.16.06l7.2.11Z" transform="translate(-41.97 -41.89)"/><path class="cls-3" d="M73.5,322.31l-14.35.27-7.27.11c-2.43,0-4.87,0-7.31.05h-.42v-.43l0-12.23v-.48h.48l14.47.06c4.82,0,9.64.11,14.46.16h.27v.26c0,2.08-.08,4.13-.13,6.17Zm0,0-.13-6.17c-.05-2-.11-4.05-.13-6.06l.26.27c-4.82,0-9.64.15-14.46.16l-14.47.06.49-.49L45,322.31l-.44-.43c2.39,0,4.77,0,7.16.05l7.2.11Z" transform="translate(-41.97 -41.89)"/><path class="cls-3" d="M73.5,57.78l-14.35.27-7.27.11c-2.43.05-4.87,0-7.31.06h-.42v-.44l0-12.22v-.49h.48L59,45.14c4.82,0,9.64.11,14.46.16h.27v.26c0,2.07-.08,4.13-.13,6.17Zm0,0-.13-6.17c-.05-2-.11-4-.13-6l.26.26c-4.82,0-9.64.16-14.46.16L44.57,46l.49-.48L45,57.78l-.44-.43c2.39,0,4.77,0,7.16.06l7.2.1Z" transform="translate(-41.97 -41.89)"/><path class="cls-3" d="M439.27,57.78l-14.36.27-7.27.11c-2.43.05-4.87,0-7.3.06h-.43v-.44l0-12.22v-.49h.49l14.46.06c4.82,0,9.64.11,14.47.16h.26v.26c0,2.07-.08,4.13-.13,6.17Zm0,0-.14-6.17c-.05-2-.11-4-.13-6l.27.26c-4.83,0-9.65.16-14.47.16L410.34,46l.48-.48-.05,12.22-.43-.43c2.38,0,4.76,0,7.16.06l7.19.1Z" transform="translate(-41.97 -41.89)"/><path class="cls-3" d="M423.13,73.2l-14.36.27-7.27.11c-2.43,0-4.87,0-7.3,0h-.43V73.2L393.71,61v-.48h.49l14.46.06c4.82,0,9.65.11,14.47.16h.26V61c0,2.07-.08,4.13-.12,6.17Zm0,0L423,67c0-2-.11-4.05-.13-6.06l.27.27c-4.82,0-9.65.15-14.47.16l-14.46.06.48-.49-.05,12.23-.43-.43c2.38,0,4.77,0,7.16,0l7.19.11Z" transform="translate(-41.97 -41.89)"/><path class="cls-3" d="M349,216.22l-14.35.27-7.27.1c-2.43,0-4.87,0-7.31.06h-.43v-.43L319.62,204v-.48h.48l14.47.06c4.82,0,9.64.11,14.46.16h.27V204c0,2.07-.09,4.13-.13,6.17Zm0,0-.13-6.17c0-2-.11-4.05-.13-6.06l.26.27c-4.82,0-9.64.15-14.46.15l-14.47.06.49-.48,0,12.23-.44-.44c2.39,0,4.77,0,7.16.06l7.2.11Z" transform="translate(-41.97 -41.89)"/><path class="cls-3" d="M332.9,231.63l-14.36.27-7.27.11c-2.43,0-4.87,0-7.3.05h-.43v-.44l0-12.22v-.49H304l14.46.06c4.82,0,9.64.11,14.47.16h.26v.27c0,2.07-.08,4.13-.13,6.17Zm0,0-.14-6.17c0-2-.11-4.05-.13-6.05l.27.26c-4.83.05-9.65.15-14.47.16l-14.46.06.48-.48-.05,12.22-.43-.43c2.38,0,4.76,0,7.16.05l7.19.11Z" transform="translate(-41.97 -41.89)"/><path class="cls-3" d="M316.82,216.22l-14.35.27-7.27.1c-2.43,0-4.87,0-7.31.06h-.43v-.43l0-12.23v-.48h.48l14.47.06c4.82,0,9.64.11,14.46.16h.27V204c0,2.07-.08,4.13-.12,6.17Zm0,0-.14-6.17c0-2-.11-4.05-.12-6.06l.26.27c-4.82,0-9.64.15-14.46.15l-14.47.06.48-.48-.05,12.23-.43-.44c2.39,0,4.77,0,7.16.06l7.2.11Z" transform="translate(-41.97 -41.89)"/><path class="cls-3" d="M439.27,322.31l-14.36.27-7.27.11c-2.43,0-4.87,0-7.3.05h-.43v-.43l0-12.23v-.48h.49l14.46.06c4.82,0,9.64.11,14.47.16h.26v.26c0,2.08-.08,4.13-.13,6.17Zm0,0-.14-6.17c-.05-2-.11-4.05-.13-6.06l.27.27c-4.83,0-9.65.15-14.47.16l-14.46.06.48-.49-.05,12.23-.43-.43c2.38,0,4.76,0,7.16.05l7.19.11Z" transform="translate(-41.97 -41.89)"/><path class="cls-3" d="M193.46,94.14l-14.35.27-7.27.11c-2.43,0-4.87,0-7.31,0h-.43v-.43l0-12.23v-.48h.48l14.47.06c4.82,0,9.64.11,14.46.16h.27v.26c0,2.07-.08,4.13-.13,6.17Zm0,0L193.33,88c-.05-2-.11-4-.13-6.06l.26.27c-4.82,0-9.64.15-14.46.15l-14.47.07.49-.49L165,94.14l-.44-.43c2.39,0,4.77,0,7.16.05l7.2.11Z" transform="translate(-41.97 -41.89)"/><path class="cls-3" d="M409.55,175.12l5.69-9.18-2.81-1.74a2.58,2.58,0,0,1-1.19-2.42c0-.54.06-1.08.05-1.62a2.58,2.58,0,0,1,1.34-2.33l2.92-1.56-5.11-9.53-2.92,1.56a2.54,2.54,0,0,1-2.68-.17c-.45-.31-.91-.59-1.38-.85a2.58,2.58,0,0,1-1.35-2.33l.1-3.31-10.8-.33-.1,3.32a2.56,2.56,0,0,1-1.5,2.23q-.36.16-.72.36l-.69.39a2.56,2.56,0,0,1-2.68,0l-2.83-1.75-5.7,9.18,2.82,1.75a2.59,2.59,0,0,1,1.19,2.42,12.32,12.32,0,0,0-.05,1.61,2.57,2.57,0,0,1-1.35,2.33l-2.91,1.56,5.11,9.53,2.91-1.56a2.56,2.56,0,0,1,2.69.17,13.56,13.56,0,0,0,1.37.84,2.58,2.58,0,0,1,1.35,2.33l-.1,3.32,10.8.33.11-3.31a2.56,2.56,0,0,1,1.5-2.23c.24-.11.48-.23.71-.36l.69-.39a2.55,2.55,0,0,1,2.7,0Zm-9.15-6.82a8.85,8.85,0,1,1,3.62-12,8.85,8.85,0,0,1-3.62,12" transform="translate(-41.97 -41.89)"/><path class="cls-3" d="M98.25,279.19,104,270l-2.82-1.74a2.57,2.57,0,0,1-1.19-2.42,14.36,14.36,0,0,0,0-1.61,2.59,2.59,0,0,1,1.34-2.34l2.92-1.56-5.11-9.53-2.92,1.57a2.55,2.55,0,0,1-2.68-.18c-.45-.3-.9-.59-1.38-.85A2.57,2.57,0,0,1,90.81,249l.11-3.31-10.81-.33-.1,3.32a2.58,2.58,0,0,1-1.5,2.24l-.71.35-.7.4a2.56,2.56,0,0,1-2.68,0l-2.83-1.76-5.7,9.19,2.82,1.74a2.58,2.58,0,0,1,1.19,2.42,14.43,14.43,0,0,0-.05,1.61,2.58,2.58,0,0,1-1.34,2.33l-2.92,1.57,5.11,9.52,2.92-1.56a2.57,2.57,0,0,1,2.68.17,14.87,14.87,0,0,0,1.37.85A2.56,2.56,0,0,1,79,280.11l-.1,3.31,10.8.34.11-3.32a2.57,2.57,0,0,1,1.5-2.23c.24-.11.48-.23.71-.36s.47-.26.7-.39a2.56,2.56,0,0,1,2.69,0Zm-9.15-6.82a8.86,8.86,0,1,1,3.63-12,8.85,8.85,0,0,1-3.63,12" transform="translate(-41.97 -41.89)"/><path class="cls-3" d="M208.89,103.29l-3.78-6.56-2,1.16a1.81,1.81,0,0,1-1.89-.06,8.64,8.64,0,0,0-1-.57,1.81,1.81,0,0,1-1-1.6V93.34h-7.58v2.32a1.81,1.81,0,0,1-1,1.6,8.64,8.64,0,0,0-1,.57,1.81,1.81,0,0,1-1.89.06l-2-1.16L182,103.29l2,1.16a1.81,1.81,0,0,1,.88,1.67c0,.18,0,.37,0,.56s0,.37,0,.55a1.81,1.81,0,0,1-.88,1.67l-2,1.16,3.78,6.56,2-1.16a1.79,1.79,0,0,1,1.88.07c.32.2.64.39,1,.56a1.81,1.81,0,0,1,1,1.6V120h7.58v-2.32a1.81,1.81,0,0,1,1-1.6c.34-.17.66-.36,1-.56a1.81,1.81,0,0,1,1.89-.07l2,1.16,3.78-6.56-2-1.16a1.8,1.8,0,0,1-.88-1.66c0-.19,0-.37,0-.56s0-.38,0-.56a1.81,1.81,0,0,1,.88-1.67Zm-7.24,3.39a6.2,6.2,0,1,1-6.2-6.21,6.2,6.2,0,0,1,6.2,6.21" transform="translate(-41.97 -41.89)"/></g><g class="cls-2"><path class="cls-4" d="M86,294c-12.64,12.38-14.76,31.53-12.1,48.31.07.38.66.28.66-.08,0-3.82-.12-7.6-.11-11.38l.2-.5c3.3-2.41,6.33-5.12,8.22-8.83,2.11-4.15,2.94-8.84,4.55-13.18.15-.41-.29-.29-.58-.08-7.69,5.68-10.14,11.78-12.35,19.94a67.55,67.55,0,0,1,1.34-12.7c1.66-7.75,4.95-15.42,10.51-21.17A.24.24,0,0,0,86,294" transform="translate(-41.97 -41.89)"/><path class="cls-5" d="M88.34,295.46c2.18.08,3.54,3.55,5.24,4.57a1.63,1.63,0,0,0,2.4-.38c1.68-2.34-.63-5.24-2.8-6.86,1.55.64,2.84,1.76,4.51,2.08a1.58,1.58,0,0,0,2-1.22c.73-3.2-3.28-4.62-6-4.69,1.34-.92,5.16-3.44,3.13-4.68s-6.55,2.36-8,3.54c-2.15,1.75-4.71,4.36-4.81,7.09-.13,3.18,2.66,1.22,4.33.55" transform="translate(-41.97 -41.89)"/><g class="cls-6"><g class="cls-7"><path d="M88.34,295.46c2.18.08,3.54,3.55,5.24,4.57a1.63,1.63,0,0,0,2.4-.38c1.68-2.34-.63-5.24-2.8-6.86,1.55.64,2.84,1.76,4.51,2.08a1.58,1.58,0,0,0,2-1.22c.73-3.2-3.28-4.62-6-4.69,1.34-.92,5.16-3.44,3.13-4.68s-6.55,2.36-8,3.54c-2.15,1.75-4.71,4.36-4.81,7.09-.13,3.18,2.66,1.22,4.33.55" transform="translate(-41.97 -41.89)"/></g></g><path class="cls-5" d="M87.71,296c2.78-1.27,8.13.55,8.58-.5.92-2.14-3.35-3.61-5.65-3.89,2.12-.58,6.19-1.5,6.06-3.54-.15-2.5-6.24-.35-9.32,2-3.88,3-3.85,5.85-3.21,6.42.88.79,3.08-.29,3.54-.5" transform="translate(-41.97 -41.89)"/><path class="cls-4" d="M57.16,292.79c13.11,11.89,16,30.95,13.94,47.82-.06.38-.65.3-.66-.06-.15-3.81-.18-7.6-.33-11.37-.08-.17-.14-.33-.22-.5-3.39-2.27-6.52-4.87-8.54-8.51-2.27-4.07-3.28-8.72-5.06-13-.16-.41.28-.3.58-.1,7.9,5.37,10.59,11.38,13.1,19.45a67.48,67.48,0,0,0-1.82-12.64c-2-7.68-5.53-15.22-11.31-20.75-.21-.21.1-.56.32-.35" transform="translate(-41.97 -41.89)"/><path class="cls-5" d="M54.84,294.33c-2.17.15-3.4,3.68-5.05,4.76a1.64,1.64,0,0,1-2.42-.29c-1.77-2.28.43-5.26,2.53-6.95-1.52.69-2.76,1.86-4.42,2.24A1.57,1.57,0,0,1,43.4,293c-.86-3.17,3.09-4.74,5.84-4.91-1.37-.88-5.28-3.25-3.3-4.57s6.63,2.11,8.13,3.24c2.22,1.66,4.88,4.17,5.08,6.89.25,3.18-2.61,1.33-4.31.73" transform="translate(-41.97 -41.89)"/><g class="cls-6"><g class="cls-8"><path d="M54.84,294.33c-2.17.15-3.4,3.68-5.05,4.76a1.64,1.64,0,0,1-2.42-.29c-1.77-2.28.43-5.26,2.53-6.95-1.52.69-2.76,1.86-4.42,2.24A1.57,1.57,0,0,1,43.4,293c-.86-3.17,3.09-4.74,5.84-4.91-1.37-.88-5.28-3.25-3.3-4.57s6.63,2.11,8.13,3.24c2.22,1.66,4.88,4.17,5.08,6.89.25,3.18-2.61,1.33-4.31.73" transform="translate(-41.97 -41.89)"/></g></g><path class="cls-5" d="M55.49,294.84c-2.82-1.16-8.1.86-8.59-.17-1-2.11,3.21-3.74,5.5-4.11-2.14-.5-6.24-1.26-6.19-3.31,0-2.5,6.22-.58,9.39,1.66,4,2.83,4.07,5.69,3.45,6.29-.85.83-3.09-.17-3.56-.36" transform="translate(-41.97 -41.89)"/><path class="cls-4" d="M70.57,324.2A129.55,129.55,0,0,0,74.64,343a.47.47,0,0,0,.91-.19c-.86-5.79-2.43-11.48-3.29-17.27a87.05,87.05,0,0,1-1-17.74c.55-9.76,3.2-20.14,9.57-27.78.14-.18-.16-.44-.3-.27-12.76,14.87-10.73,33.1-10.72,34.74C68,308.33,66.15,301.27,59.32,295c-.3-.27-.53-.14-.48.32,1.22,11.42,4.4,17.38,11,23.49.19,1.81.42,3.61.71,5.39" transform="translate(-41.97 -41.89)"/><path class="cls-5" d="M80.94,281.73c2.3-1,5.46,1.9,7.73,2.1a1.87,1.87,0,0,0,2.3-1.6c.57-3.28-3.28-5.12-6.34-5.71,1.93-.12,3.82.4,5.72-.11a1.82,1.82,0,0,0,1.5-2.29c-.85-3.69-5.73-3.15-8.61-1.83.91-1.64,3.61-6.18.88-6.44s-5.6,5.74-6.52,7.71c-1.36,2.89-2.7,6.89-1.43,9.77,1.47,3.37,3.37-.07,4.77-1.6" transform="translate(-41.97 -41.89)"/><g class="cls-6"><g class="cls-9"><path d="M80.94,281.73c2.3-1,5.46,1.9,7.73,2.1a1.87,1.87,0,0,0,2.3-1.6c.57-3.28-3.28-5.12-6.34-5.71,1.93-.12,3.82.4,5.72-.11a1.82,1.82,0,0,0,1.5-2.29c-.85-3.69-5.73-3.15-8.61-1.83.91-1.64,3.61-6.18.88-6.44s-5.6,5.74-6.52,7.71c-1.36,2.89-2.7,6.89-1.43,9.77,1.47,3.37,3.37-.07,4.77-1.6" transform="translate(-41.97 -41.89)"/></g></g><path class="cls-5" d="M80.56,282.6c2.25-2.71,8.71-3.51,8.65-4.83-.12-2.69-5.29-2.07-7.82-1.2,1.91-1.67,5.67-4.66,4.51-6.73-1.42-2.51-6.65,2.78-8.66,6.78-2.53,5-1.06,8-.1,8.28,1.31.38,3-1.85,3.42-2.3" transform="translate(-41.97 -41.89)"/><path class="cls-5" d="M62.18,327.63l-5.63,43H90.78c-.7-3.8-7.07-43-7.07-43Z" transform="translate(-41.97 -41.89)"/></g><polygon class="cls-4" points="99.97 328.55 49.99 328.63 0 328.87 49.99 329.1 99.97 329.19 199.95 329.35 299.92 329.19 349.91 329.1 399.9 328.87 349.91 328.63 299.92 328.54 199.95 328.38 99.97 328.55"/><g class="cls-2"><path class="cls-3" d="M386.16,434.53c0,11.26-64.58,20.39-144.24,20.39S97.68,445.79,97.68,434.53s64.58-20.4,144.24-20.4,144.24,9.13,144.24,20.4" transform="translate(-41.97 -41.89)"/></g><path class="cls-4" d="M152.48,220.31l-6-23.64L99,208.73l-6.27-24.67,37.92-86.43,18.81-4.78,18.29,72L183,161l6.32,24.85-15.19,3.86,6,23.64ZM120,177l23.46-6-7.76-30.54Z" transform="translate(-41.97 -41.89)"/><g class="cls-2"><path class="cls-4" d="M288.39,141.4A63.49,63.49,0,0,1,284.83,163a53.67,53.67,0,0,1-9.8,17.09,44.27,44.27,0,0,1-14.68,11.22,42.51,42.51,0,0,1-18.43,4,43.1,43.1,0,0,1-18.52-4,44,44,0,0,1-14.77-11.22A52.38,52.38,0,0,1,198.92,163a69.18,69.18,0,0,1,0-43.27,52.49,52.49,0,0,1,9.71-17.09,45,45,0,0,1,14.77-11.3,42.31,42.31,0,0,1,18.52-4.1,41.73,41.73,0,0,1,18.43,4.1A45.32,45.32,0,0,1,275,102.67a53.78,53.78,0,0,1,9.8,17.09,63.51,63.51,0,0,1,3.56,21.64m-28.67,0q0-12.47-5-20.21t-12.82-7.75q-8.19,0-13.09,7.75t-4.89,20.21q0,12.47,4.89,20.11t13.09,7.66q7.83,0,12.82-7.66t5-20.11" transform="translate(-41.97 -41.89)"/><path class="cls-4" d="M339.5,215.76l3.9-24.08-48.33-7.83,4.08-25.13,69.19-64.18,19.16,3.1-11.87,73.29,15.46,2.5L387,198.74l-15.47-2.5-3.9,24.07ZM326.94,163l23.9,3.87,5-31.1Z" transform="translate(-41.97 -41.89)"/><path class="cls-4" d="M201.93,70.12a12.67,12.67,0,0,1-5.53-1.19,13.49,13.49,0,0,1-4.26-3.17,14.58,14.58,0,0,1-3.73-9.71,14,14,0,0,1,1-5.32,14.84,14.84,0,0,1,2.85-4.5,13.84,13.84,0,0,1,4.32-3.1A12.83,12.83,0,0,1,202.05,42a12.16,12.16,0,0,1,5.49,1.23,13.76,13.76,0,0,1,4.24,3.23A14.92,14.92,0,0,1,214.52,51a14.35,14.35,0,0,1,1,5.16,14,14,0,0,1-1,5.3,14.45,14.45,0,0,1-2.82,4.46,13.44,13.44,0,0,1-4.3,3.09,12.93,12.93,0,0,1-5.43,1.15m-8.05-14.07a11.19,11.19,0,0,0,.54,3.47,9.36,9.36,0,0,0,1.59,3,7.88,7.88,0,0,0,2.54,2.07,7.88,7.88,0,0,0,6.88,0A8.05,8.05,0,0,0,208,62.42a9.48,9.48,0,0,0,1.56-3,10.9,10.9,0,0,0,.53-3.38,10.76,10.76,0,0,0-.57-3.48,9.44,9.44,0,0,0-1.6-3,7.72,7.72,0,0,0-2.54-2.06,7.93,7.93,0,0,0-6.86,0A7.8,7.8,0,0,0,196,49.69a9.48,9.48,0,0,0-1.54,3,10.8,10.8,0,0,0-.53,3.38" transform="translate(-41.97 -41.89)"/><path class="cls-4" d="M228.59,70.31a11.07,11.07,0,0,1-4.49-.86,10.07,10.07,0,0,1-3.39-2.32,10.53,10.53,0,0,1-2.13-3.38,11.43,11.43,0,0,1,0-8.09,10.47,10.47,0,0,1,2.13-3.39A10.22,10.22,0,0,1,224.1,50a12.12,12.12,0,0,1,9,0,10.3,10.3,0,0,1,3.36,2.32,10.47,10.47,0,0,1,2.13,3.39,11.43,11.43,0,0,1,0,8.09,10.65,10.65,0,0,1-2.11,3.38,9.75,9.75,0,0,1-3.36,2.32,11.15,11.15,0,0,1-4.5.86m-5.35-10.59a7,7,0,0,0,.41,2.48,6,6,0,0,0,1.13,1.94,5.16,5.16,0,0,0,1.7,1.27,5.17,5.17,0,0,0,4.22,0,5.16,5.16,0,0,0,1.7-1.27,6.2,6.2,0,0,0,1.14-2,7.36,7.36,0,0,0,.41-2.5,7.26,7.26,0,0,0-.41-2.46,6.2,6.2,0,0,0-1.14-2A5.16,5.16,0,0,0,230.7,54a5,5,0,0,0-2.11-.45,4.83,4.83,0,0,0-2.11.47,5.51,5.51,0,0,0-1.7,1.29,6,6,0,0,0-1.13,2,7,7,0,0,0-.41,2.46" transform="translate(-41.97 -41.89)"/><path class="cls-4" d="M255.09,70.31a8,8,0,0,1-4.22-1.07,7.62,7.62,0,0,1-2.81-2.91V78.25h-5.24V49.44h4.57V53a8.41,8.41,0,0,1,2.94-2.84,8.13,8.13,0,0,1,4.14-1,8.77,8.77,0,0,1,3.83.84,9.43,9.43,0,0,1,3,2.27,10.43,10.43,0,0,1,2,3.36,11.6,11.6,0,0,1,.72,4.08,12.94,12.94,0,0,1-.66,4.18,10.59,10.59,0,0,1-1.86,3.41,8.58,8.58,0,0,1-2.83,2.26,7.87,7.87,0,0,1-3.6.82m-1.76-4.45a4.66,4.66,0,0,0,2.17-.51A5,5,0,0,0,257.2,64a6.41,6.41,0,0,0,1.1-2,7.2,7.2,0,0,0,.39-2.35,6.52,6.52,0,0,0-.43-2.4,6.07,6.07,0,0,0-1.19-1.94,5.82,5.82,0,0,0-1.8-1.29,5.43,5.43,0,0,0-2.25-.47,4.9,4.9,0,0,0-1.52.26,5.46,5.46,0,0,0-1.45.72,6.2,6.2,0,0,0-1.19,1.1,4.47,4.47,0,0,0-.8,1.36v4.81a6.82,6.82,0,0,0,2.15,2.91,4.89,4.89,0,0,0,3.12,1.16" transform="translate(-41.97 -41.89)"/><path class="cls-4" d="M275.34,70.31a15.74,15.74,0,0,1-5-.82,12.26,12.26,0,0,1-4.22-2.34L268,63.86a16.79,16.79,0,0,0,3.66,2,9.88,9.88,0,0,0,3.54.68,4.48,4.48,0,0,0,2.46-.58,1.91,1.91,0,0,0,.9-1.69,1.67,1.67,0,0,0-1.06-1.6,22.22,22.22,0,0,0-3.44-1.17c-1.33-.37-2.46-.72-3.4-1.06a8.56,8.56,0,0,1-2.27-1.15,4,4,0,0,1-1.25-1.48,4.82,4.82,0,0,1-.39-2,6.27,6.27,0,0,1,.61-2.81,6,6,0,0,1,1.7-2.13,7.73,7.73,0,0,1,2.56-1.35,10.49,10.49,0,0,1,3.18-.47,13.77,13.77,0,0,1,4.32.66,10.59,10.59,0,0,1,3.7,2.15L280.74,55a12.26,12.26,0,0,0-3-1.72,8.41,8.41,0,0,0-2.91-.55,4.26,4.26,0,0,0-2.23.55,1.9,1.9,0,0,0-.9,1.76,1.76,1.76,0,0,0,.21.9,1.92,1.92,0,0,0,.69.62,6.09,6.09,0,0,0,1.23.53c.51.17,1.14.35,1.89.53,1.41.36,2.62.73,3.62,1.09A10.42,10.42,0,0,1,281.77,60a4.42,4.42,0,0,1,1.41,1.63,5,5,0,0,1,.45,2.2,5.72,5.72,0,0,1-2.23,4.76,9.64,9.64,0,0,1-6.06,1.73" transform="translate(-41.97 -41.89)"/><path class="cls-4" d="M288.05,41.89h5.23v17.6h-5.23Zm0,22.13h5.23v5.9h-5.23Z" transform="translate(-41.97 -41.89)"/></g><rect class="cls-10" x="185.52" y="261.81" width="34.37" height="2.82"/><rect class="cls-10" x="185.52" y="265.47" width="34.37" height="2.81"/><rect class="cls-10" x="185.52" y="269.14" width="34.37" height="2.81"/><rect class="cls-10" x="185.52" y="272.81" width="34.37" height="2.81"/><rect class="cls-10" x="185.52" y="276.47" width="34.37" height="2.81"/><rect class="cls-10" x="169.43" y="349.62" width="65.33" height="2.81"/><rect class="cls-10" x="169.43" y="353.29" width="65.33" height="2.81"/><rect class="cls-10" x="169.43" y="356.96" width="65.33" height="2.81"/><rect class="cls-10" x="169.43" y="360.62" width="65.33" height="2.81"/><rect class="cls-10" x="169.43" y="364.29" width="65.33" height="2.81"/><g class="cls-2"><path class="cls-5" d="M182.73,280.43c0-.38-14.3-5.18-14.3-5.18l.85-49.24,19-4.08Z" transform="translate(-41.97 -41.89)"/><g class="cls-11"><g class="cls-12"><path d="M182.73,280.43c0-.38-14.3-5.18-14.3-5.18l.85-49.24,19-4.08Z" transform="translate(-41.97 -41.89)"/></g></g><path class="cls-5" d="M314,299.76c.1-.37,15.21.06,15.21.06l16.15-46.53-16.44-10.37Z" transform="translate(-41.97 -41.89)"/><g class="cls-11"><g class="cls-13"><path d="M314,299.76c.1-.37,15.21.06,15.21.06l16.15-46.53-16.44-10.37Z" transform="translate(-41.97 -41.89)"/></g></g><path class="cls-5" d="M180,298.56s5.32-79.63,10-105.83c0,0,96.2,7.27,148.13,27.12,0,0-26.77,93-28.16,97.64,0,0-67.74-13.34-130-18.93" transform="translate(-41.97 -41.89)"/><g class="cls-6"><g class="cls-14"><path d="M265.84,203.36q-2.34,14.38-4.78,28.75l-5,28.72-.27-.4,32.24,7.65,16.1,3.91,16.08,4-16.17-3.62-16.15-3.7-32.26-7.53-.33-.08.06-.33L260.54,232q2.58-14.34,5.3-28.66" transform="translate(-41.97 -41.89)"/></g></g><g class="cls-6"><g class="cls-15"><path d="M262.31,208.83a1.89,1.89,0,0,1-1.69,1.87,1.94,1.94,0,0,1-1.42-.46,1.88,1.88,0,1,1,3.11-1.41m0,0a1.57,1.57,0,0,0-.53-1.16,1.58,1.58,0,0,0-1.16-.35,1.52,1.52,0,0,0,0,3,1.51,1.51,0,0,0,1.69-1.51" transform="translate(-41.97 -41.89)"/></g></g><g class="cls-6"><g class="cls-16"><path d="M260.62,220.68a1.89,1.89,0,0,1-1.69,1.87,1.94,1.94,0,0,1-1.42-.46,1.87,1.87,0,0,1,1.42-3.28,1.88,1.88,0,0,1,1.69,1.87m0,0a1.57,1.57,0,0,0-.53-1.16,1.58,1.58,0,0,0-1.16-.35,1.52,1.52,0,0,0,0,3,1.51,1.51,0,0,0,1.69-1.51" transform="translate(-41.97 -41.89)"/></g></g><g class="cls-6"><g class="cls-17"><path d="M258.54,233.2a1.89,1.89,0,0,1-1.69,1.87,1.94,1.94,0,0,1-1.42-.46,1.88,1.88,0,1,1,3.11-1.41m0,0a1.51,1.51,0,0,0-1.69-1.51,1.52,1.52,0,0,0,0,3,1.51,1.51,0,0,0,1.69-1.51" transform="translate(-41.97 -41.89)"/></g></g><g class="cls-6"><g class="cls-18"><path d="M256.46,245.72a1.89,1.89,0,0,1-1.69,1.87,1.94,1.94,0,0,1-1.42-.46,1.86,1.86,0,0,1-.63-1.41,1.9,1.9,0,0,1,.63-1.42,1.93,1.93,0,0,1,1.42-.45,1.89,1.89,0,0,1,1.69,1.87m0,0a1.52,1.52,0,0,0-1.69-1.51,1.52,1.52,0,0,0,0,3,1.51,1.51,0,0,0,1.69-1.51" transform="translate(-41.97 -41.89)"/></g></g><g class="cls-6"><g class="cls-19"><path d="M263.54,265.69a1.88,1.88,0,0,1-1.68,1.87,1.88,1.88,0,0,1-1.42-3.29,1.87,1.87,0,0,1,3.1,1.42m0,0a1.53,1.53,0,0,0-.53-1.16,1.5,1.5,0,0,0-2.48,1.16,1.53,1.53,0,0,0,1.33,1.51,1.51,1.51,0,0,0,1.68-1.51" transform="translate(-41.97 -41.89)"/></g></g><g class="cls-6"><g class="cls-20"><path d="M275.36,268.57a1.88,1.88,0,0,1-1.69,1.87,1.93,1.93,0,0,1-1.41-.46,1.91,1.91,0,0,1-.64-1.41,2,2,0,0,1,.64-1.42,1.9,1.9,0,0,1,1.41-.45,1.88,1.88,0,0,1,1.69,1.87m0,0a1.51,1.51,0,0,0-1.69-1.51,1.53,1.53,0,0,0-1.32,1.51,1.51,1.51,0,0,0,1.32,1.51,1.51,1.51,0,0,0,1.69-1.51" transform="translate(-41.97 -41.89)"/></g></g><g class="cls-6"><g class="cls-21"><path d="M287.18,271.45a1.87,1.87,0,0,1-1.69,1.87,1.88,1.88,0,1,1,0-3.74,1.88,1.88,0,0,1,1.69,1.87m0,0a1.49,1.49,0,0,0-1.69-1.5,1.52,1.52,0,0,0,0,3,1.51,1.51,0,0,0,1.69-1.51" transform="translate(-41.97 -41.89)"/></g></g><g class="cls-6"><g class="cls-22"><path d="M299,274.34a1.86,1.86,0,0,1-3.1,1.41,1.88,1.88,0,1,1,3.1-1.41m0,0a1.51,1.51,0,1,0-1.69,1.5,1.48,1.48,0,0,0,1.16-.35,1.53,1.53,0,0,0,.53-1.15" transform="translate(-41.97 -41.89)"/></g></g><g class="cls-6"><g class="cls-23"><path d="M310.81,277.35a1.87,1.87,0,0,1-1.82,1.73,1.89,1.89,0,0,1-1.38-.56,1.88,1.88,0,0,1,.22-2.82,1.86,1.86,0,0,1,3,1.65m0,0a1.56,1.56,0,0,0-.44-1.2,1.54,1.54,0,1,0,.44,1.2" transform="translate(-41.97 -41.89)"/></g></g><g class="cls-6"><g class="cls-24"><path d="M254.38,258.24a1.88,1.88,0,0,1-3.75,0,1.87,1.87,0,0,1,2.06-1.87,1.89,1.89,0,0,1,1.69,1.87m0,0a1.59,1.59,0,0,0-.54-1.16,1.55,1.55,0,0,0-1.15-.35,1.52,1.52,0,0,0,0,3,1.52,1.52,0,0,0,1.69-1.51" transform="translate(-41.97 -41.89)"/></g></g><g class="cls-11"><g class="cls-25"><path d="M243.18,263a27.32,27.32,0,1,1-22.6-31.34A27.32,27.32,0,0,1,243.18,263" transform="translate(-41.97 -41.89)"/></g></g><path class="cls-4" d="M237.84,262.17A21.91,21.91,0,1,1,219.72,237a21.92,21.92,0,0,1,18.12,25.13" transform="translate(-41.97 -41.89)"/><rect class="cls-5" x="209.32" y="250.18" width="5.19" height="5.19" transform="matrix(0.16, -0.99, 0.99, 0.16, -113.46, 379.67)"/><rect class="cls-5" x="205.02" y="244.23" width="5.19" height="5.19" transform="translate(-111.19 370.43) rotate(-80.8)"/><rect class="cls-5" x="225.51" y="247.55" width="5.19" height="5.19" transform="translate(-97.25 393.44) rotate(-80.8)"/><rect class="cls-5" x="201.72" y="264.6" width="5.19" height="5.19" transform="translate(-134.07 384.29) rotate(-80.8)"/><rect class="cls-5" x="222.21" y="267.92" width="5.19" height="5.19" transform="translate(-120.13 407.3) rotate(-80.8)"/><rect class="cls-5" x="207.68" y="260.31" width="5.19" height="5.19" transform="translate(-124.83 386.56) rotate(-80.8)"/><rect class="cls-5" x="213.62" y="256.08" width="5.19" height="5.19" transform="translate(-115.66 388.86) rotate(-80.8)"/><rect class="cls-5" x="219.56" y="251.84" width="5.19" height="5.19" transform="translate(-106.49 391.17) rotate(-80.8)"/><rect class="cls-5" x="217.92" y="261.97" width="5.19" height="5.19" transform="translate(-117.9 398.01) rotate(-80.79)"/><path class="cls-5" d="M316.1,276.43a27.32,27.32,0,1,1-20.26-32.89,27.32,27.32,0,0,1,20.26,32.89" transform="translate(-41.97 -41.89)"/><g class="cls-11"><g class="cls-26"><path d="M316.1,276.43a27.32,27.32,0,1,1-20.26-32.89,27.32,27.32,0,0,1,20.26,32.89" transform="translate(-41.97 -41.89)"/></g></g><g class="cls-11"><g class="cls-27"><path d="M316.1,276.44c-.12.54-.27,1.06-.43,1.58l-53.25-11.36c.13-1,.3-1.9.52-2.86a27.32,27.32,0,1,1,53.16,12.64" transform="translate(-41.97 -41.89)"/></g></g><path class="cls-4" d="M310.84,275.18a21.91,21.91,0,1,1-16.25-26.38,21.9,21.9,0,0,1,16.25,26.38" transform="translate(-41.97 -41.89)"/><rect class="cls-5" x="276.61" y="267.52" width="25.83" height="5.19" transform="translate(-82.2 447.44) rotate(-76.63)"/><path class="cls-5" d="M317.69,275.93l-55.94-13.3a28.75,28.75,0,0,1,55.94,13.3" transform="translate(-41.97 -41.89)"/><g class="cls-11"><g class="cls-28"><path d="M317.69,275.93l-55.94-13.3a28.75,28.75,0,0,1,55.94,13.3" transform="translate(-41.97 -41.89)"/></g></g><g class="cls-6"><g class="cls-29"><path d="M242,286.36a10.05,10.05,0,0,1,2.53-6.15,7.28,7.28,0,0,1,3-2,8.41,8.41,0,0,1,3.58-.4,6.66,6.66,0,0,1,5.61,4.19,11.24,11.24,0,0,1,.57,6.63,17.65,17.65,0,0,0-1.92-5.94,5.72,5.72,0,0,0-4.47-3,6.81,6.81,0,0,0-5.31,1.55,14.39,14.39,0,0,0-3.56,5.08" transform="translate(-41.97 -41.89)"/></g></g><path class="cls-30" d="M187.46,230.64c.22-2.92.55-5.83.83-8.74s.63-5.81,1-8.71.71-5.8,1.09-8.7.78-5.79,1.17-8.69l.1-.77.79.05c6.3.4,12.59.9,18.87,1.55,3.14.32,6.28.69,9.41,1.09s6.26.86,9.37,1.43L211.18,198l-18.87-1.22.89-.72c-.43,2.89-.83,5.78-1.28,8.67s-.89,5.78-1.37,8.66-1,5.76-1.47,8.64-1,5.76-1.62,8.63" transform="translate(-41.97 -41.89)"/><path class="cls-30" d="M192,252.72a23.82,23.82,0,0,1,4.37-9.77c.53-.73,1.14-1.41,1.72-2.1s1.29-1.29,1.94-1.93,1.42-1.14,2.15-1.69,1.53-1,2.31-1.47,1.65-.81,2.48-1.18l2.6-.9,2.69-.56c.9-.13,1.81-.16,2.72-.22a26.28,26.28,0,0,1,10.52,2,37.62,37.62,0,0,0-10.44-.69,24.47,24.47,0,0,0-9.74,3,28.43,28.43,0,0,0-7.92,6.54,32,32,0,0,0-5.4,8.94" transform="translate(-41.97 -41.89)"/><path class="cls-30" d="M267.36,260.1A23.85,23.85,0,0,1,273,251c.63-.65,1.33-1.24,2-1.85s1.46-1.09,2.19-1.64,1.56-.93,2.36-1.38,1.65-.78,2.49-1.13,1.75-.58,2.62-.83l2.7-.54,2.74-.17c.91,0,1.82.09,2.72.15A26.16,26.16,0,0,1,303,247.09,37.19,37.19,0,0,0,292.76,245a24.53,24.53,0,0,0-10.08,1.65A28.2,28.2,0,0,0,274,252a31.69,31.69,0,0,0-6.59,8.11" transform="translate(-41.97 -41.89)"/><path class="cls-5" d="M183,347.64c-7,0-22.32-1.57-32.18-14.25-12.61-16.21-8-47.33-7.85-48.65l5.47.83c0,.3-4.39,30.09,6.75,44.42,10.9,14,30.67,12,30.87,12l.62,5.5a32.75,32.75,0,0,1-3.68.17" transform="translate(-41.97 -41.89)"/><g class="cls-31"><g class="cls-32"><path class="cls-30" d="M183,347.64c-7,0-22.32-1.57-32.18-14.25-12.61-16.21-8-47.33-7.85-48.65l5.47.83c0,.3-4.39,30.09,6.75,44.42,10.9,14,30.67,12,30.87,12l.62,5.5a32.75,32.75,0,0,1-3.68.17" transform="translate(-41.97 -41.89)"/></g></g><path class="cls-5" d="M150.08,289.34a18.91,18.91,0,0,1-3.05-.25c-9.24-1.5-13.33-7-15.13-11.4s-2.23-9.68-1.25-15.76l11.72,1.9c-.61,3.76-.43,7.08.5,9.34.66,1.61,1.95,3.54,6.06,4.2,1.87.31,3.9.15,6-3.05a22.29,22.29,0,0,0,3-8l11.72,1.9a34.37,34.37,0,0,1-4.8,12.62c-3.67,5.54-8.83,8.47-14.76,8.47" transform="translate(-41.97 -41.89)"/><path class="cls-5" d="M194.6,363.49c0-.25-9.92-1.83-9.92-1.83l-4.81-32.33,12-4.74Z" transform="translate(-41.97 -41.89)"/><g class="cls-11"><g class="cls-33"><path d="M194.6,363.49c0-.25-9.92-1.83-9.92-1.83l-4.81-32.33,12-4.74Z" transform="translate(-41.97 -41.89)"/></g></g><path class="cls-5" d="M292.53,363.55c0-.25,10-1.61,10-1.61L308,329.73l-11.89-5Z" transform="translate(-41.97 -41.89)"/><g class="cls-11"><g class="cls-34"><path d="M292.53,363.55c0-.25,10-1.61,10-1.61L308,329.73l-11.89-5Z" transform="translate(-41.97 -41.89)"/></g></g><path class="cls-5" d="M190.48,317.36s80.11-3.43,107.17,1.08c0,0-7.95,77.52-8.38,79,0,0-79.68-.21-92.14,0,0,0-6.75-51.54-6.65-80.1" transform="translate(-41.97 -41.89)"/><g class="cls-11"><g class="cls-35"><path d="M214.81,338.6s43.73-1.73,58.51.54c0,0-4.34,39.09-4.58,39.85,0,0-43.5-.11-50.3,0,0,0-3-26.75-3.63-40.39" transform="translate(-41.97 -41.89)"/></g></g><g class="cls-11"><g class="cls-36"><path d="M220.79,379l-2.35,0s-3-26.75-3.63-40.4l2.73-.09Z" transform="translate(-41.97 -41.89)"/></g></g><path class="cls-5" d="M233.69,348.24a4.66,4.66,0,1,0,3,5.84,4.66,4.66,0,0,0-3-5.84m2.5,5.67a4.08,4.08,0,1,1-2.67-5.13,4.1,4.1,0,0,1,2.67,5.13m-2.5-5.67a4.66,4.66,0,1,0,3,5.84,4.66,4.66,0,0,0-3-5.84m2.5,5.67a4.08,4.08,0,1,1-2.67-5.13,4.1,4.1,0,0,1,2.67,5.13m-2.5-5.67a4.66,4.66,0,1,0,3,5.84,4.66,4.66,0,0,0-3-5.84m2.5,5.67a4.08,4.08,0,1,1-2.67-5.13,4.1,4.1,0,0,1,2.67,5.13m-.95-10.58a9.8,9.8,0,1,0,6.4,12.29,9.8,9.8,0,0,0-6.4-12.29m2.18,11a5.37,5.37,0,1,1-3.51-6.74,5.38,5.38,0,0,1,3.51,6.74m-.7-.21a4.65,4.65,0,1,0-5.83,3,4.65,4.65,0,0,0,5.83-3m-.53-.17a4.08,4.08,0,1,1-2.67-5.13,4.1,4.1,0,0,1,2.67,5.13m-2.5-5.67a4.66,4.66,0,1,0,3,5.84,4.66,4.66,0,0,0-3-5.84m2.5,5.67a4.08,4.08,0,1,1-2.67-5.13,4.1,4.1,0,0,1,2.67,5.13m-2.5-5.67a4.66,4.66,0,1,0,3,5.84,4.66,4.66,0,0,0-3-5.84m2.5,5.67a4.08,4.08,0,1,1-2.67-5.13,4.1,4.1,0,0,1,2.67,5.13" transform="translate(-41.97 -41.89)"/><polygon class="cls-5" points="189.29 320.31 185.7 319.18 185.09 321.79 188.29 322.8 189.29 320.31"/><polygon class="cls-5" points="182.83 316.94 181.09 313.6 178.82 315.02 180.37 317.99 182.83 316.94"/><polygon class="cls-5" points="180.64 310 181.78 306.4 179.17 305.8 178.16 308.99 180.64 310"/><polygon class="cls-5" points="184.01 303.53 187.35 301.79 185.94 299.52 182.96 301.07 184.01 303.53"/><polygon class="cls-5" points="190.96 301.35 194.56 302.48 195.16 299.87 191.96 298.86 190.96 301.35"/><polygon class="cls-5" points="197.42 304.71 199.16 308.06 201.43 306.64 199.88 303.67 197.42 304.71"/><polygon class="cls-5" points="199.61 311.66 198.48 315.26 201.09 315.86 202.09 312.66 199.61 311.66"/><polygon class="cls-5" points="196.24 318.13 192.9 319.87 194.32 322.14 197.29 320.59 196.24 318.13"/><path class="cls-37" d="M249.5,361.92a3.13,3.13,0,1,0,.92,4.34,3.13,3.13,0,0,0-.92-4.34m.6,4.13a2.75,2.75,0,1,1-.81-3.81,2.76,2.76,0,0,1,.81,3.81m-.6-4.13a3.13,3.13,0,1,0,.92,4.34,3.13,3.13,0,0,0-.92-4.34m.6,4.13a2.75,2.75,0,1,1-.81-3.81,2.76,2.76,0,0,1,.81,3.81m-.6-4.13a3.13,3.13,0,1,0,.92,4.34,3.13,3.13,0,0,0-.92-4.34m.6,4.13a2.75,2.75,0,1,1-.81-3.81,2.76,2.76,0,0,1,.81,3.81m1.3-7a6.6,6.6,0,1,0,1.92,9.13A6.6,6.6,0,0,0,251.4,359m-.58,7.5a3.62,3.62,0,1,1-1-5,3.61,3.61,0,0,1,1,5m-.4-.26a3.13,3.13,0,1,0-4.34.91,3.14,3.14,0,0,0,4.34-.91m-.32-.21a2.75,2.75,0,1,1-.81-3.81,2.76,2.76,0,0,1,.81,3.81m-.6-4.13a3.13,3.13,0,1,0,.92,4.34,3.13,3.13,0,0,0-.92-4.34m.6,4.13a2.75,2.75,0,1,1-.81-3.81,2.76,2.76,0,0,1,.81,3.81m-.6-4.13a3.13,3.13,0,1,0,.92,4.34,3.13,3.13,0,0,0-.92-4.34m.6,4.13a2.75,2.75,0,1,1-.81-3.81,2.76,2.76,0,0,1,.81,3.81" transform="translate(-41.97 -41.89)"/><polygon class="cls-37" points="203.43 328.65 201.31 327.26 200.44 328.85 202.33 330.08 203.43 328.65"/><polygon class="cls-37" points="199.85 325.3 199.33 322.81 197.6 323.32 198.06 325.53 199.85 325.3"/><polygon class="cls-37" points="199.69 320.39 201.07 318.27 199.49 317.4 198.26 319.29 199.69 320.39"/><polygon class="cls-37" points="203.04 316.81 205.52 316.29 205.02 314.56 202.81 315.02 203.04 316.81"/><polygon class="cls-37" points="207.94 316.65 210.07 318.03 210.93 316.45 209.04 315.22 207.94 316.65"/><polygon class="cls-37" points="211.53 320 212.05 322.48 213.78 321.98 213.31 319.77 211.53 320"/><polygon class="cls-37" points="211.69 324.9 210.3 327.03 211.88 327.89 213.12 326 211.69 324.9"/><polygon class="cls-37" points="208.34 328.49 205.85 329.01 206.36 330.74 208.57 330.27 208.34 328.49"/><polygon class="cls-5" points="253.75 346.55 256.82 347.12 265.63 287.48 262.12 286.84 253.75 346.55"/><path class="cls-5" d="M268.74,379l4.58-39.85,30.77-10.41s-8.37,60.36-8.37,59.71Z" transform="translate(-41.97 -41.89)"/><g class="cls-31"><g class="cls-38"><path class="cls-30" d="M268.74,379l4.58-39.85,30.77-10.41s-8.37,60.36-8.37,59.71Z" transform="translate(-41.97 -41.89)"/></g></g><path class="cls-30" d="M194.16,340.76c-.51-3.3-.78-6.63-1-10-.1-1.67-.14-3.34-.18-5s-.06-3.34,0-5v-.44l.43,0c6.11-.33,12.22-.73,18.34-1s12.23-.58,18.35-.77c-6.1.56-12.2,1-18.31,1.47s-12.21.82-18.32,1.23l.44-.46,0,5,.06,5c0,1.66,0,3.33.09,5Z" transform="translate(-41.97 -41.89)"/><path class="cls-30" d="M277.61,339.73q2.86-1.37,5.8-2.53t5.92-2.24c2-.68,4-1.35,6-1.91a56.74,56.74,0,0,1,6.19-1.45l.51-.08L302,332c-.48,2.58-1,5.16-1.59,7.72.23-2.62.54-5.23.88-7.83l.43.41c-2,.48-4.05,1.05-6.07,1.64s-4,1.24-6,1.89Z" transform="translate(-41.97 -41.89)"/><g class="cls-6"><g class="cls-39"><polygon points="165.5 275.62 166.02 285.59 166.46 295.56 167.23 315.5 167.83 335.45 168.07 345.42 168.24 355.4 167.72 345.44 167.28 335.47 166.51 315.52 165.91 295.58 165.67 285.6 165.5 275.62"/></g></g><g class="cls-6"><g class="cls-40"><path d="M204.62,323.52a1.88,1.88,0,0,1-1.29,2.17,1.86,1.86,0,0,1-1.47-.17,1.88,1.88,0,0,1-.91-1.26,1.93,1.93,0,0,1,.34-1.51,2,2,0,0,1,1.3-.73,1.89,1.89,0,0,1,2,1.5m0,0a1.56,1.56,0,0,0-.75-1,1.58,1.58,0,0,0-1.2-.11,1.52,1.52,0,0,0,.59,3,1.51,1.51,0,0,0,1.36-1.82" transform="translate(-41.97 -41.89)"/></g></g><g class="cls-6"><g class="cls-41"><path d="M205.31,335.48a1.88,1.88,0,0,1-1.29,2.16,1.85,1.85,0,0,1-2.38-1.43,1.89,1.89,0,0,1,.34-1.51,1.94,1.94,0,0,1,1.3-.73,1.9,1.9,0,0,1,2,1.51m0,0a1.58,1.58,0,0,0-.75-1,1.6,1.6,0,0,0-1.21-.11,1.52,1.52,0,0,0,.6,3,1.54,1.54,0,0,0,1.06-.57,1.57,1.57,0,0,0,.3-1.24" transform="translate(-41.97 -41.89)"/></g></g><g class="cls-6"><g class="cls-42"><path d="M205.74,348.16a1.87,1.87,0,1,1-3.67.74,1.88,1.88,0,0,1,1.64-2.24,1.88,1.88,0,0,1,2,1.5m0,0a1.56,1.56,0,0,0-.75-1,1.5,1.5,0,0,0-1.2-.11,1.52,1.52,0,1,0,1.66,2.38,1.56,1.56,0,0,0,.29-1.24" transform="translate(-41.97 -41.89)"/></g></g><g class="cls-6"><g class="cls-43"><path d="M206.18,360.84a1.87,1.87,0,0,1-2.77,2,1.92,1.92,0,0,1-.9-1.26,1.87,1.87,0,1,1,3.67-.74m0,0a1.59,1.59,0,0,0-.75-1,1.56,1.56,0,0,0-1.21-.11,1.52,1.52,0,0,0,.6,3,1.58,1.58,0,0,0,1.07-.57,1.62,1.62,0,0,0,.29-1.25" transform="translate(-41.97 -41.89)"/></g></g><g class="cls-6"><g class="cls-44"><path d="M206.61,373.53a1.89,1.89,0,0,1-1.29,2.17,1.88,1.88,0,1,1-.73-3.67,1.88,1.88,0,0,1,2,1.5m0,0a1.56,1.56,0,0,0-.75-1,1.5,1.5,0,0,0-1.2-.11,1.52,1.52,0,1,0,1.66,2.38,1.56,1.56,0,0,0,.29-1.24" transform="translate(-41.97 -41.89)"/></g></g><g class="cls-6"><g class="cls-45"><path d="M207.05,386.21a1.87,1.87,0,0,1-2.77,2,1.89,1.89,0,0,1-.56-2.77,1.87,1.87,0,0,1,3.33.77m0,0a1.59,1.59,0,0,0-.75-1,1.56,1.56,0,0,0-1.21-.11,1.52,1.52,0,0,0,.6,3,1.56,1.56,0,0,0,1.07-.58,1.59,1.59,0,0,0,.29-1.24" transform="translate(-41.97 -41.89)"/></g></g><rect class="cls-5" x="165.41" y="412.36" width="47.4" height="5.54" transform="translate(-154.25 30.8) rotate(-16.86)"/><g class="cls-31"><g class="cls-46"><rect class="cls-30" x="165.41" y="412.36" width="47.4" height="5.54" transform="translate(-154.25 30.8) rotate(-16.86)"/></g></g><rect class="cls-5" x="185.09" y="411.02" width="5.54" height="8.23" transform="translate(-158.98 34.59) rotate(-17.65)"/><polygon class="cls-5" points="124.88 390.53 113.18 339.84 77.85 348.21 95.25 397.61 124.88 390.53"/><polygon class="cls-5" points="132.72 387.95 124.88 390.53 113.18 339.84 124.45 342.52 132.72 387.95"/><g class="cls-11"><g class="cls-47"><polygon points="132.72 387.95 124.88 390.53 113.18 339.84 124.45 342.52 132.72 387.95"/></g></g><path class="cls-5" d="M217.8,408.26a6,6,0,1,1-6-6,6,6,0,0,1,6,6" transform="translate(-41.97 -41.89)"/><rect class="cls-5" x="292.76" y="391.34" width="5.54" height="47.4" transform="translate(-229.69 534.59) rotate(-73.02)"/><g class="cls-31"><g class="cls-48"><rect class="cls-30" x="292.76" y="391.34" width="5.54" height="47.4" transform="translate(-229.69 534.59) rotate(-73.02)"/></g></g><rect class="cls-5" x="292.66" y="412.27" width="8.23" height="5.54" transform="translate(-231.02 529.07) rotate(-72.23)"/><polygon class="cls-5" points="275.77 390.48 287.59 339.82 322.9 348.27 305.4 397.63 275.77 390.48"/><polygon class="cls-5" points="267.94 387.89 275.77 390.48 287.59 339.82 276.31 342.48 267.94 387.89"/><g class="cls-11"><g class="cls-49"><polygon points="267.94 387.89 275.77 390.48 287.59 339.82 276.31 342.48 267.94 387.89"/></g></g><path class="cls-5" d="M266.85,408.11a6,6,0,1,0,6-6,6,6,0,0,0-6,6" transform="translate(-41.97 -41.89)"/><path class="cls-5" d="M312.23,345.59c.15-.13,14.72-13.65,31.85-9,17.53,4.73,32,31.13,32.15,31.4l4.87-2.63c-.64-1.18-15.73-28.77-35.57-34.11-20.19-5.45-36.43,9.71-37.11,10.36Z" transform="translate(-41.97 -41.89)"/><g class="cls-31"><g class="cls-50"><path class="cls-30" d="M312.23,345.59c.15-.13,14.72-13.65,31.85-9,17.53,4.73,32,31.13,32.15,31.4l4.87-2.63c-.64-1.18-15.73-28.77-35.57-34.11-20.19-5.45-36.43,9.71-37.11,10.36Z" transform="translate(-41.97 -41.89)"/></g></g><path class="cls-5" d="M369.77,394.53,380.26,389a22.19,22.19,0,0,1-2.43-8.14c-.23-3.84,1.29-5.19,3-6.07,3.68-1.95,5.87-1.18,7.37-.29,2.11,1.24,4.24,3.78,6,7.15l10.5-5.54c-2.87-5.44-6.4-9.42-10.48-11.83s-10.67-4.36-18.95,0c-6.45,3.41-9.74,9.55-9.27,17.29a34.29,34.29,0,0,0,3.78,13" transform="translate(-41.97 -41.89)"/><path class="cls-4" d="M314.45,327.1c2.27-1.57,4.6-3.05,6.94-4.52s4.7-2.89,7.07-4.3,4.76-2.78,7.18-4.1l3.64-2c1.23-.63,2.44-1.29,3.68-1.89-1.13.79-2.3,1.53-3.44,2.3l-3.5,2.22c-2.33,1.47-4.7,2.89-7.07,4.29s-4.77,2.78-7.19,4.11-4.83,2.65-7.31,3.88" transform="translate(-41.97 -41.89)"/><path class="cls-4" d="M308.42,349.74c3.26,1.86,6.34,3.95,9.39,6.11a110.18,110.18,0,0,1,8.83,6.89c-3.26-1.86-6.35-3.95-9.39-6.11a110.18,110.18,0,0,1-8.83-6.89" transform="translate(-41.97 -41.89)"/><path class="cls-4" d="M313.77,347c2.51.76,5,1.62,7.46,2.5s4.92,1.81,7.36,2.75,4.88,1.92,7.29,3l3.61,1.55c1.19.55,2.4,1.07,3.58,1.65-1.26-.38-2.5-.81-3.75-1.21l-3.71-1.3c-2.48-.87-4.92-1.8-7.37-2.74s-4.87-1.93-7.28-3-4.82-2.06-7.19-3.19" transform="translate(-41.97 -41.89)"/><path class="cls-4" d="M320.91,329.22c2.41-.62,4.84-1.15,7.27-1.65s4.87-1,7.31-1.4,4.89-.84,7.35-1.18l3.69-.51c1.24-.14,2.47-.31,3.71-.41-1.21.32-2.42.58-3.63.87l-3.64.78c-2.43.52-4.87,1-7.31,1.4s-4.89.84-7.35,1.18-4.92.69-7.4.92" transform="translate(-41.97 -41.89)"/></g><g class="cls-2"><path class="cls-4" d="M262.84,344.29a26.12,26.12,0,0,1,1.92-5.69,23.05,23.05,0,0,1,3.2-5.11,12.43,12.43,0,0,1,4.86-3.63,8.58,8.58,0,0,1,6.11.06,8.16,8.16,0,0,1,4.36,4.32,9.87,9.87,0,0,1,.81,3,6.74,6.74,0,0,1-.35,3.16,2.89,2.89,0,0,1-1.07,1.37,2,2,0,0,1-.88.32,1.91,1.91,0,0,1-1-.09,2.67,2.67,0,0,1-1.25-1.26,7.36,7.36,0,0,1-.57-1.49,19.74,19.74,0,0,1-.51-6.11A25.08,25.08,0,0,1,282,321.59a15.27,15.27,0,0,1,4.2-4.46,12.68,12.68,0,0,1,5.7-2.2,15.49,15.49,0,0,1,3-.27,9.82,9.82,0,0,1,1.53.09A9.63,9.63,0,0,1,298,315a18.64,18.64,0,0,1,5.66,2.14,23.5,23.5,0,0,1,4.75,3.72,24.88,24.88,0,0,1,3.73,4.7,26,26,0,0,0-8.71-8,18.15,18.15,0,0,0-5.54-2,9.06,9.06,0,0,0-1.46-.16,8,8,0,0,0-1.47-.06,15,15,0,0,0-2.91.32,12.55,12.55,0,0,0-5.35,2.15,14.47,14.47,0,0,0-3.93,4.24,24.28,24.28,0,0,0-3.31,11.17,18.73,18.73,0,0,0,.43,5.8,3.39,3.39,0,0,0,1.26,2.17c.08,0,.13.05.22.05a2.71,2.71,0,0,0,.29,0,1.26,1.26,0,0,0,.52-.19,2.14,2.14,0,0,0,.74-1,6,6,0,0,0,.31-2.74,8.82,8.82,0,0,0-.73-2.75,7.57,7.57,0,0,0-3.88-4,7.91,7.91,0,0,0-5.61-.17,12,12,0,0,0-4.72,3.38,26.17,26.17,0,0,0-5.47,10.48" transform="translate(-41.97 -41.89)"/><path class="cls-4" d="M173.43,369.37a13.58,13.58,0,0,1,3.91-4.49,14.47,14.47,0,0,1,5.42-2.59,11.61,11.61,0,0,1,6.05.11,12.08,12.08,0,0,1,5.16,3.22,15.37,15.37,0,0,1,3.24,5.16,14.17,14.17,0,0,1,1,6,5.07,5.07,0,0,1-1.13,3,2.35,2.35,0,0,1-1.63.73,3.46,3.46,0,0,1-1.66-.38,2.66,2.66,0,0,1-1.2-1.28,4.24,4.24,0,0,1-.37-1.62,8.88,8.88,0,0,1,.52-3.09,17.63,17.63,0,0,1,3-5.33,21.32,21.32,0,0,1,4.38-4.21,16.31,16.31,0,0,1,11.53-3.17,15.27,15.27,0,0,1,10.33,5.82,20.9,20.9,0,0,1,3,5.2,24.13,24.13,0,0,1,1.58,5.76,24.06,24.06,0,0,0-4.95-10.65,15.23,15.23,0,0,0-4.49-3.7,14.81,14.81,0,0,0-5.55-1.66,15.72,15.72,0,0,0-10.92,3.12,19.87,19.87,0,0,0-7,9.12,8.08,8.08,0,0,0-.49,2.76,2.33,2.33,0,0,0,1.06,2.13,2.53,2.53,0,0,0,1.21.28,1.4,1.4,0,0,0,1-.45,4.21,4.21,0,0,0,.9-2.48,13.26,13.26,0,0,0-.92-5.65,14.76,14.76,0,0,0-3-4.92,11.45,11.45,0,0,0-4.8-3.11,11,11,0,0,0-5.73-.26,14.88,14.88,0,0,0-9.44,6.58" transform="translate(-41.97 -41.89)"/><path class="cls-4" d="M128.66,135.68a26.12,26.12,0,0,0-2.81-11.49,11.94,11.94,0,0,0-3.78-4.4,7.84,7.84,0,0,0-5.49-1.17,7.54,7.54,0,0,0-4.72,2.94,8.56,8.56,0,0,0-1.36,2.5,5.88,5.88,0,0,0-.35,2.73,2.06,2.06,0,0,0,.49,1.11,1.17,1.17,0,0,0,.45.31c.09,0,.19,0,.28.08a1.76,1.76,0,0,0,.23,0c.66-.13,1.31-1,1.74-1.8a18.69,18.69,0,0,0,1.8-5.53,24.21,24.21,0,0,0-.55-11.63,14.2,14.2,0,0,0-2.8-5.06,12.52,12.52,0,0,0-4.69-3.37,14.85,14.85,0,0,0-2.75-1,8.84,8.84,0,0,0-1.43-.29,8.11,8.11,0,0,0-1.46-.19,18.1,18.1,0,0,0-5.85.58,26,26,0,0,0-10.37,5.69A25.22,25.22,0,0,1,90,102a23.41,23.41,0,0,1,5.49-2.48,18.53,18.53,0,0,1,6-.73A9.55,9.55,0,0,1,103,99a11.11,11.11,0,0,1,1.51.27,16.43,16.43,0,0,1,2.89,1,12.84,12.84,0,0,1,5,3.49,15.2,15.2,0,0,1,3,5.34,25.1,25.1,0,0,1,.66,12.08,19.6,19.6,0,0,1-1.94,5.81,7.16,7.16,0,0,1-.91,1.31,2.71,2.71,0,0,1-1.52.93,2,2,0,0,1-1-.14,2.13,2.13,0,0,1-.77-.53,2.87,2.87,0,0,1-.71-1.58,6.71,6.71,0,0,1,.41-3.16A9.61,9.61,0,0,1,111.2,121a8.14,8.14,0,0,1,5.27-3.15,8.49,8.49,0,0,1,5.94,1.4,12.32,12.32,0,0,1,3.86,4.68,23.33,23.33,0,0,1,1.88,5.73,26.14,26.14,0,0,1,.51,6" transform="translate(-41.97 -41.89)"/><path class="cls-4" d="M342.34,186.15a26.25,26.25,0,0,0-11.83,0,12,12,0,0,0-5.16,2.65,7.89,7.89,0,0,0-2.42,5.07,7.54,7.54,0,0,0,1.76,5.27,8.92,8.92,0,0,0,2.11,1.91,5.93,5.93,0,0,0,2.58,1,2.09,2.09,0,0,0,1.19-.22,1.22,1.22,0,0,0,.41-.37,2,2,0,0,0,.14-.25c0-.09,0-.15.05-.23,0-.67-.66-1.5-1.34-2.11a19,19,0,0,0-5-3,24.21,24.21,0,0,0-11.44-2.18,14.36,14.36,0,0,0-5.57,1.55,12.56,12.56,0,0,0-4.37,3.77,14.36,14.36,0,0,0-1.62,2.44,8,8,0,0,0-.62,1.32,9.59,9.59,0,0,0-.53,1.38,18.4,18.4,0,0,0-.8,5.82A26.13,26.13,0,0,0,303,221.37a25.11,25.11,0,0,1-2.46-5.47,23.39,23.39,0,0,1-1.13-5.92,18.57,18.57,0,0,1,.69-6,20,20,0,0,1,1.13-2.84,16.49,16.49,0,0,1,1.63-2.58,12.74,12.74,0,0,1,4.57-4,15,15,0,0,1,5.89-1.69,25.1,25.1,0,0,1,11.9,2.18,19.6,19.6,0,0,1,5.2,3.24,8.11,8.11,0,0,1,1.06,1.19,2.75,2.75,0,0,1,.55,1.7,1.88,1.88,0,0,1-.36.89,2.08,2.08,0,0,1-.69.63,2.92,2.92,0,0,1-1.71.32,6.56,6.56,0,0,1-3-1.13,9.64,9.64,0,0,1-2.3-2.11,8.11,8.11,0,0,1-1.85-5.85,8.57,8.57,0,0,1,2.75-5.46,12.39,12.39,0,0,1,5.46-2.65,23,23,0,0,1,6-.5,26.42,26.42,0,0,1,5.93.9" transform="translate(-41.97 -41.89)"/><path class="cls-4" d="M282.43,123.55a16.45,16.45,0,0,1-.38-7.12,17.45,17.45,0,0,1,2.48-6.74,13.88,13.88,0,0,1,5.27-4.93,14.39,14.39,0,0,1,7.09-1.55,18.31,18.31,0,0,1,7.05,1.71,16.78,16.78,0,0,1,5.87,4.3,5.85,5.85,0,0,1,1.55,3.48,2.7,2.7,0,0,1-.76,1.93,4.16,4.16,0,0,1-1.7,1.05,3.23,3.23,0,0,1-2-.09,5,5,0,0,1-1.64-1.07,10.7,10.7,0,0,1-2.13-3,21.39,21.39,0,0,1-1.92-7,25.91,25.91,0,0,1,.22-7.25,19.53,19.53,0,0,1,7.18-12.32,18.33,18.33,0,0,1,13.68-3.68,25.46,25.46,0,0,1,6.91,1.93,28.65,28.65,0,0,1,6.18,3.59,28.76,28.76,0,0,0-13.14-5,18.18,18.18,0,0,0-7,.58,17.91,17.91,0,0,0-6.18,3.22,18.1,18.1,0,0,0-4.5,5.28,20.76,20.76,0,0,0-2.28,6.58,23.79,23.79,0,0,0,1.68,13.7,9.78,9.78,0,0,0,1.91,2.8,2.89,2.89,0,0,0,2.79,1A3.29,3.29,0,0,0,310,114a1.82,1.82,0,0,0,.51-1.31,5,5,0,0,0-1.33-2.92,15.91,15.91,0,0,0-5.55-4.1,18.1,18.1,0,0,0-6.73-1.69,13.91,13.91,0,0,0-6.75,1.37A13.29,13.29,0,0,0,285,110a17.79,17.79,0,0,0-2.54,13.57" transform="translate(-41.97 -41.89)"/><path class="cls-51" d="M170.19,369.58a4.11,4.11,0,1,0,2.69,5.16,4.1,4.1,0,0,0-2.69-5.16m2.21,5a3.61,3.61,0,1,1-2.36-4.53,3.61,3.61,0,0,1,2.36,4.53m-2.21-5a4.11,4.11,0,1,0,2.69,5.16,4.1,4.1,0,0,0-2.69-5.16m2.21,5a3.61,3.61,0,1,1-2.36-4.53,3.61,3.61,0,0,1,2.36,4.53m-2.21-5a4.11,4.11,0,1,0,2.69,5.16,4.1,4.1,0,0,0-2.69-5.16m2.21,5a3.61,3.61,0,1,1-2.36-4.53,3.61,3.61,0,0,1,2.36,4.53m-.84-9.36a8.67,8.67,0,1,0,5.66,10.88,8.68,8.68,0,0,0-5.66-10.88m1.93,9.7a4.76,4.76,0,1,1-3.11-6,4.77,4.77,0,0,1,3.11,6m-.61-.19a4.11,4.11,0,1,0-5.16,2.69,4.11,4.11,0,0,0,5.16-2.69m-.48-.15a3.61,3.61,0,1,1-2.36-4.53,3.61,3.61,0,0,1,2.36,4.53m-2.21-5a4.11,4.11,0,1,0,2.69,5.16,4.1,4.1,0,0,0-2.69-5.16m2.21,5a3.61,3.61,0,1,1-2.36-4.53,3.61,3.61,0,0,1,2.36,4.53m-2.21-5a4.11,4.11,0,1,0,2.69,5.16,4.1,4.1,0,0,0-2.69-5.16m2.21,5a3.61,3.61,0,1,1-2.36-4.53,3.61,3.61,0,0,1,2.36,4.53" transform="translate(-41.97 -41.89)"/><polygon class="cls-51" points="126.07 340.04 122.89 339.04 122.36 341.34 125.19 342.23 126.07 340.04"/><polygon class="cls-51" points="120.36 337.06 118.82 334.1 116.81 335.35 118.18 337.99 120.36 337.06"/><polygon class="cls-51" points="118.42 330.91 119.42 327.73 117.12 327.2 116.22 330.02 118.42 330.91"/><polygon class="cls-51" points="121.4 325.19 124.36 323.65 123.11 321.64 120.47 323.01 121.4 325.19"/><polygon class="cls-51" points="127.55 323.26 130.73 324.26 131.26 321.95 128.44 321.06 127.55 323.26"/><polygon class="cls-51" points="133.26 326.24 134.81 329.2 136.81 327.94 135.44 325.31 133.26 326.24"/><polygon class="cls-51" points="135.2 332.39 134.2 335.57 136.5 336.1 137.4 333.27 135.2 332.39"/><polygon class="cls-51" points="132.22 338.1 129.26 339.64 130.52 341.65 133.15 340.28 132.22 338.1"/><path class="cls-4" d="M330.63,341.93a13.26,13.26,0,1,0-18.54,2.75,13.26,13.26,0,0,0,18.54-2.75M325,337.72a6.19,6.19,0,1,1-1.28-8.66,6.18,6.18,0,0,1,1.28,8.66" transform="translate(-41.97 -41.89)"/><polygon class="cls-4" points="272.49 303.86 268.4 300.82 266.47 303.88 270.11 306.59 272.49 303.86"/><polygon class="cls-4" points="265.72 296.7 264.98 291.65 261.45 292.46 262.11 296.95 265.72 296.7"/><polygon class="cls-4" points="266 286.85 269.04 282.75 265.97 280.83 263.27 284.47 266 286.85"/><polygon class="cls-4" points="273.16 280.08 278.2 279.33 277.4 275.81 272.91 276.47 273.16 280.08"/><polygon class="cls-4" points="283.01 280.36 287.1 283.39 289.03 280.33 285.39 277.63 283.01 280.36"/><polygon class="cls-4" points="289.78 287.52 290.52 292.56 294.05 291.75 293.39 287.27 289.78 287.52"/><polygon class="cls-4" points="289.5 297.37 286.46 301.46 289.53 303.39 292.23 299.75 289.5 297.37"/><polygon class="cls-4" points="282.34 304.13 277.3 304.88 278.1 308.41 282.59 307.75 282.34 304.13"/><path class="cls-4" d="M315.24,334.67l2.81,3.55,4.49-.67,1.66-4.21-2.81-3.55-4.49.66Zm5.34-1.82a1.44,1.44,0,1,1-2,.3,1.43,1.43,0,0,1,2-.3" transform="translate(-41.97 -41.89)"/><path class="cls-4" d="M340.57,83.8a3.6,3.6,0,1,0,2.35,4.52,3.61,3.61,0,0,0-2.35-4.52m1.93,4.39a3.16,3.16,0,1,1-2.06-4,3.15,3.15,0,0,1,2.06,4m-1.93-4.39a3.6,3.6,0,1,0,2.35,4.52,3.61,3.61,0,0,0-2.35-4.52m1.93,4.39a3.16,3.16,0,1,1-2.06-4,3.15,3.15,0,0,1,2.06,4m-1.93-4.39a3.6,3.6,0,1,0,2.35,4.52,3.61,3.61,0,0,0-2.35-4.52m1.93,4.39a3.16,3.16,0,1,1-2.06-4,3.15,3.15,0,0,1,2.06,4M341.77,80a7.59,7.59,0,1,0,5,9.52,7.59,7.59,0,0,0-5-9.52m1.68,8.49a4.16,4.16,0,1,1-2.71-5.22,4.16,4.16,0,0,1,2.71,5.22m-.53-.17a3.6,3.6,0,1,0-4.51,2.35,3.61,3.61,0,0,0,4.51-2.35m-.42-.13a3.16,3.16,0,1,1-2.06-4,3.15,3.15,0,0,1,2.06,4m-1.93-4.39a3.6,3.6,0,1,0,2.35,4.52,3.61,3.61,0,0,0-2.35-4.52m1.93,4.39a3.16,3.16,0,1,1-2.06-4,3.15,3.15,0,0,1,2.06,4m-1.93-4.39a3.6,3.6,0,1,0,2.35,4.52,3.61,3.61,0,0,0-2.35-4.52m1.93,4.39a3.16,3.16,0,1,1-2.06-4,3.15,3.15,0,0,1,2.06,4" transform="translate(-41.97 -41.89)"/><polygon class="cls-4" points="296.72 52.72 293.94 51.84 293.47 53.86 295.94 54.64 296.72 52.72"/><polygon class="cls-4" points="291.72 50.11 290.37 47.52 288.61 48.62 289.81 50.92 291.72 50.11"/><polygon class="cls-4" points="290.02 44.73 290.9 41.95 288.88 41.48 288.1 43.96 290.02 44.73"/><polygon class="cls-4" points="292.63 39.73 295.22 38.38 294.12 36.62 291.82 37.82 292.63 39.73"/><polygon class="cls-4" points="298.01 38.03 300.79 38.91 301.26 36.89 298.79 36.11 298.01 38.03"/><polygon class="cls-4" points="303.01 40.64 304.36 43.23 306.12 42.13 304.92 39.83 303.01 40.64"/><polygon class="cls-4" points="304.71 46.02 303.83 48.8 305.85 49.27 306.63 46.8 304.71 46.02"/><polygon class="cls-4" points="302.1 51.02 299.51 52.37 300.61 54.13 302.91 52.93 302.1 51.02"/><path class="cls-4" d="M303.59,222.05a3.6,3.6,0,1,0,2.35,4.52,3.6,3.6,0,0,0-2.35-4.52m1.93,4.38a3.16,3.16,0,1,1-2.06-4,3.17,3.17,0,0,1,2.06,4m-1.93-4.38a3.6,3.6,0,1,0,2.35,4.52,3.6,3.6,0,0,0-2.35-4.52m1.93,4.38a3.16,3.16,0,1,1-2.06-4,3.17,3.17,0,0,1,2.06,4m-1.93-4.38a3.6,3.6,0,1,0,2.35,4.52,3.6,3.6,0,0,0-2.35-4.52m1.93,4.38a3.16,3.16,0,1,1-2.06-4,3.17,3.17,0,0,1,2.06,4m-.73-8.18a7.59,7.59,0,1,0,4.95,9.51,7.59,7.59,0,0,0-4.95-9.51m1.68,8.48a4.16,4.16,0,1,1-2.71-5.21,4.16,4.16,0,0,1,2.71,5.21m-.53-.16a3.6,3.6,0,1,0-4.51,2.35,3.61,3.61,0,0,0,4.51-2.35m-.42-.14a3.16,3.16,0,1,1-2.06-4,3.17,3.17,0,0,1,2.06,4m-1.93-4.38a3.6,3.6,0,1,0,2.35,4.52,3.6,3.6,0,0,0-2.35-4.52m1.93,4.38a3.16,3.16,0,1,1-2.06-4,3.17,3.17,0,0,1,2.06,4m-1.93-4.38a3.6,3.6,0,1,0,2.35,4.52,3.6,3.6,0,0,0-2.35-4.52m1.93,4.38a3.16,3.16,0,1,1-2.06-4,3.17,3.17,0,0,1,2.06,4" transform="translate(-41.97 -41.89)"/><polygon class="cls-4" points="259.74 190.97 256.96 190.09 256.49 192.11 258.96 192.89 259.74 190.97"/><polygon class="cls-4" points="254.74 188.36 253.39 185.77 251.63 186.87 252.83 189.17 254.74 188.36"/><polygon class="cls-4" points="253.04 182.98 253.92 180.19 251.9 179.73 251.12 182.2 253.04 182.98"/><polygon class="cls-4" points="255.65 177.98 258.24 176.63 257.14 174.87 254.84 176.07 255.65 177.98"/><polygon class="cls-4" points="261.03 176.28 263.81 177.16 264.28 175.14 261.81 174.36 261.03 176.28"/><polygon class="cls-4" points="266.03 178.89 267.38 181.48 269.14 180.38 267.94 178.08 266.03 178.89"/><polygon class="cls-4" points="267.73 184.27 266.85 187.05 268.87 187.52 269.65 185.04 267.73 184.27"/><polygon class="cls-4" points="265.12 189.27 262.53 190.62 263.63 192.38 265.93 191.18 265.12 189.27"/><path class="cls-4" d="M92,113.21a11.41,11.41,0,1,0-13.79,8.39A11.41,11.41,0,0,0,92,113.21M86,111.77a5.33,5.33,0,1,1-3.92-6.44A5.33,5.33,0,0,1,86,111.77" transform="translate(-41.97 -41.89)"/><polygon class="cls-4" points="38.43 79.77 34.17 78.73 33.67 81.8 37.46 82.73 38.43 79.77"/><polygon class="cls-4" points="30.66 76.35 28.38 72.6 25.86 74.42 27.88 77.76 30.66 76.35"/><polygon class="cls-4" points="27.59 68.44 28.63 64.18 25.55 63.68 24.63 67.47 27.59 68.44"/><polygon class="cls-4" points="31 60.68 34.75 58.4 32.93 55.87 29.59 57.9 31 60.68"/><polygon class="cls-4" points="38.91 57.6 43.17 58.64 43.67 55.56 39.88 54.64 38.91 57.6"/><polygon class="cls-4" points="46.67 61.01 48.95 64.76 51.48 62.94 49.45 59.61 46.67 61.01"/><polygon class="cls-4" points="49.75 68.92 48.71 73.19 51.79 73.69 52.71 69.89 49.75 68.92"/><polygon class="cls-4" points="46.34 76.69 42.59 78.97 44.41 81.5 47.74 79.47 46.34 76.69"/><path class="cls-4" d="M77.31,112.6l3.42,1.88,3.33-2-.09-3.9-3.42-1.87-3.33,2Zm3.62-3.22a1.23,1.23,0,1,1-1.49.9,1.23,1.23,0,0,1,1.49-.9" transform="translate(-41.97 -41.89)"/></g><g class="cls-2"><path class="cls-30" d="M349.9,231.22a23.84,23.84,0,0,1-4.06-13.14c0-16.64,18.27-30.13,40.8-30.13s40.78,13.49,40.78,30.13-18.26,30.13-40.78,30.13c-10.93,0-20.83-3.16-28.14-8.33l-14.06,3.57Z" transform="translate(-41.97 -41.89)"/><path class="cls-4" d="M349.9,231.22a23.29,23.29,0,0,1-.91-25.17,32.07,32.07,0,0,1,9-9.73,42.81,42.81,0,0,1,11.84-6,55.07,55.07,0,0,1,13-2.61,56.27,56.27,0,0,1,13.28.68c1.09.22,2.2.37,3.27.66l3.22.86,3.15,1.12c1.05.37,2,.88,3.07,1.32a39.54,39.54,0,0,1,10.95,7.58,27.8,27.8,0,0,1,7.05,11.3,22.87,22.87,0,0,1,.14,13.31,27.64,27.64,0,0,1-6.88,11.41,39.08,39.08,0,0,1-10.86,7.7,47.58,47.58,0,0,1-12.67,4.06,55.15,55.15,0,0,1-13.27.76,52.11,52.11,0,0,1-13-2.48,43.36,43.36,0,0,1-11.87-5.91l.18,0-14.08,3.46-.22,0,.09-.19Zm0,0-5.36,12.27-.12-.14,14-3.69.1,0,.08.06a48.17,48.17,0,0,0,24.7,8.06,54.6,54.6,0,0,0,13.08-.87,46.79,46.79,0,0,0,12.44-4,38.31,38.31,0,0,0,10.6-7.56,26.89,26.89,0,0,0,6.62-11.05,21.88,21.88,0,0,0-.16-12.77,26.93,26.93,0,0,0-6.79-10.93,38.66,38.66,0,0,0-10.67-7.43c-1-.43-2-.93-3-1.31l-3.09-1.1-3.16-.86c-1.06-.28-2.14-.43-3.21-.66a56.81,56.81,0,0,0-13.09-.71A54.22,54.22,0,0,0,370,190.94a42.16,42.16,0,0,0-11.72,5.84,32.33,32.33,0,0,0-8.94,9.48,23.5,23.5,0,0,0-3.4,12.53,24,24,0,0,0,3.95,12.43" transform="translate(-41.97 -41.89)"/><polygon class="cls-4" points="323.68 181.12 323.68 183.36 314.55 183.36 314.55 170.21 323.51 170.21 323.51 172.45 317.1 172.45 317.1 175.62 322.64 175.62 322.64 177.69 317.1 177.69 317.1 181.12 323.68 181.12"/><path class="cls-4" d="M367.65,225.26V212.11h5.81a3.64,3.64,0,0,1,1.68.38,4.2,4.2,0,0,1,1.32,1,4.51,4.51,0,0,1,.87,1.4,4.35,4.35,0,0,1-.32,3.91,3.62,3.62,0,0,1-1.73,1.51l3,4.95h-2.87l-2.69-4.41h-2.51v4.41Zm2.56-6.65h3.2a1.41,1.41,0,0,0,.66-.17,1.6,1.6,0,0,0,.52-.45,2.31,2.31,0,0,0,.36-.68,2.83,2.83,0,0,0,.13-.83,2.3,2.3,0,0,0-.15-.85,2.18,2.18,0,0,0-.4-.68,2,2,0,0,0-.57-.45,1.58,1.58,0,0,0-.66-.15h-3.09Z" transform="translate(-41.97 -41.89)"/><path class="cls-4" d="M380,225.26V212.11h5.82a3.7,3.7,0,0,1,1.68.38,4.2,4.2,0,0,1,1.32,1,4.71,4.71,0,0,1,.87,1.4,4.28,4.28,0,0,1,.31,1.59,4.33,4.33,0,0,1-.64,2.32,3.62,3.62,0,0,1-1.73,1.51l3,4.95h-2.87L385,220.85h-2.52v4.41Zm2.56-6.65h3.2a1.35,1.35,0,0,0,.66-.17,1.74,1.74,0,0,0,.53-.45,2.3,2.3,0,0,0,.35-.68,2.53,2.53,0,0,0,.13-.83,2.3,2.3,0,0,0-.15-.85,2.18,2.18,0,0,0-.4-.68,1.78,1.78,0,0,0-.57-.45,1.58,1.58,0,0,0-.66-.15h-3.09Z" transform="translate(-41.97 -41.89)"/><path class="cls-4" d="M397.89,225.35a5.92,5.92,0,0,1-2.62-.57,6.27,6.27,0,0,1-2-1.5,6.57,6.57,0,0,1-1.3-2.14,6.7,6.7,0,0,1,0-5,7,7,0,0,1,1.36-2.13,6.58,6.58,0,0,1,2-1.47A6.15,6.15,0,0,1,398,212a5.77,5.77,0,0,1,2.6.59,6.62,6.62,0,0,1,2,1.53,7,7,0,0,1,1.29,2.14,6.79,6.79,0,0,1,.47,2.45,6.71,6.71,0,0,1-.48,2.51,7,7,0,0,1-1.34,2.11,6.46,6.46,0,0,1-2,1.46,6,6,0,0,1-2.58.55m-3.81-6.67a5.37,5.37,0,0,0,.25,1.65,4.76,4.76,0,0,0,.75,1.41,3.87,3.87,0,0,0,1.21,1,3.4,3.4,0,0,0,1.62.37,3.48,3.48,0,0,0,1.64-.38,3.77,3.77,0,0,0,1.2-1,4.28,4.28,0,0,0,.74-1.42,5.21,5.21,0,0,0,0-3.25,4.4,4.4,0,0,0-.76-1.4,3.47,3.47,0,0,0-2.8-1.34,3.52,3.52,0,0,0-1.65.38,3.78,3.78,0,0,0-1.2,1,4.5,4.5,0,0,0-.73,1.41,5.14,5.14,0,0,0-.25,1.6" transform="translate(-41.97 -41.89)"/><path class="cls-4" d="M406.28,225.26V212.11h5.81a3.64,3.64,0,0,1,1.68.38,4.2,4.2,0,0,1,1.32,1,4.71,4.71,0,0,1,.87,1.4,4.35,4.35,0,0,1-.32,3.91,3.62,3.62,0,0,1-1.73,1.51l3,4.95H414l-2.69-4.41h-2.51v4.41Zm2.56-6.65H412a1.41,1.41,0,0,0,.66-.17,1.6,1.6,0,0,0,.52-.45,2.31,2.31,0,0,0,.36-.68,2.83,2.83,0,0,0,.13-.83,2.3,2.3,0,0,0-.15-.85,2.18,2.18,0,0,0-.4-.68,2,2,0,0,0-.57-.45,1.58,1.58,0,0,0-.66-.15h-3.09Z" transform="translate(-41.97 -41.89)"/></g></g></g></g></g></svg>