<svg xmlns="http://www.w3.org/2000/svg" viewBox="0 0 261 75.69"><defs><style>.cls-1{fill:#008c2c;}.cls-2{fill:#fff;}</style></defs><g id="图层_2" data-name="图层 2"><g id="图层_1-2" data-name="图层 1"><rect class="cls-1" width="261" height="75.69" rx="37.84"/><path class="cls-2" d="M58.77,17.76V34.7h21V17.76h6.13V57.93H79.81v-18h-21v18H52.63V17.76Z"/><path class="cls-2" d="M122.7,17.76V23H100V34.7h21.38v5.23H100V52.7h23.69v5.23H93.84V17.76Z"/><path class="cls-2" d="M159,20.63a14.85,14.85,0,0,1,5.34,9.68h-6a9.87,9.87,0,0,0-3.88-6,12.54,12.54,0,0,0-7.2-1.91c-4.34,0-7.6,1.47-9.79,4.45-2.09,2.7-3.1,6.41-3.1,11.08,0,4.84,1,8.56,3,11.2q3.21,4.21,10,4.22a11.72,11.72,0,0,0,7.31-2.2A12.33,12.33,0,0,0,158.89,44h6a17.76,17.76,0,0,1-6.31,11,17.28,17.28,0,0,1-11.14,3.71c-6.58,0-11.53-2.14-14.85-6.3-2.93-3.6-4.33-8.44-4.33-14.52s1.46-10.8,4.5-14.57c3.37-4.28,8.21-6.36,14.63-6.36C152,17,155.91,18.15,159,20.63Z"/><path class="cls-2" d="M203.3,22.94c3.38,3.76,5.07,8.77,5.07,15S206.68,49,203.3,52.81c-3.54,3.94-8.38,5.91-14.46,5.91s-11-2-14.46-6-5-8.78-5-14.86,1.63-11.08,5-14.91c3.49-4,8.33-6,14.46-6S199.76,18.94,203.3,22.94ZM178.88,26.7c-2.25,2.76-3.37,6.48-3.37,11.2s1.12,8.39,3.37,11.14,5.68,4.28,10,4.28,7.6-1.41,9.9-4.17,3.44-6.47,3.44-11.25-1.19-8.61-3.44-11.36-5.62-4.17-9.9-4.17S181.24,23.78,178.88,26.7Z"/></g></g></svg>