<svg xmlns="http://www.w3.org/2000/svg" viewBox="0 0 151.99 36.77"><defs><style>.cls-1{fill:#e2e5ed;}</style></defs><g id="图层_2" data-name="图层 2"><g id="图层_1-2" data-name="图层 1"><polygon class="cls-1" points="27.68 12.85 28.69 12.18 29.19 12.68 29.69 12.18 30.7 12.85 29.53 14.54 31.1 13.18 29.19 10.32 27.28 13.18 28.85 14.54 27.68 12.85"/><polygon class="cls-1" points="27.78 22.4 29.2 36.77 30.47 22.4 27.78 22.4"/><path class="cls-1" d="M.31.64C.16.38.05.1,0,0,.45.38,1,.82,1.53,1.31A28.17,28.17,0,0,0,12.12,7.18c3.36,1.09,6.63,2.44,9.94,3.68l-.08.27c-2.74-.67-5.49-1.32-8.22-2A42.22,42.22,0,0,1,9,7.75,16.18,16.18,0,0,1,.31.64ZM33.42,18.48a11.82,11.82,0,0,1,2,.14c.77.19,1.48.63,2.25.87a20.6,20.6,0,0,0,2.07.45l0-.25C35.93,17.59,34.61,17.36,33.42,18.48Zm-8.41,0c-1.19-1.12-2.51-.89-6.39,1.21l0,.25c.69-.14,1.4-.24,2.08-.45s1.47-.68,2.25-.87A11.7,11.7,0,0,1,25,18.48ZM56.9,1.31A28,28,0,0,1,46.31,7.18C43,8.27,39.68,9.62,36.37,10.86l.09.27c2.74-.67,5.49-1.32,8.22-2a42.84,42.84,0,0,0,4.74-1.37A16.12,16.12,0,0,0,58.12.64c.15-.26.27-.54.32-.64C58,.38,57.43.82,56.9,1.31Zm-7.2,7a19.64,19.64,0,0,0,6.67-3.19c-.19.24-.36.49-.57.72A12.93,12.93,0,0,1,50,9.56c-3.78,1.19-7.64,2.17-11.46,3.22-1.2.33-2.43.56-3.6,1a6.64,6.64,0,0,0-3.33,2.42l.22.44a5.9,5.9,0,0,1,2.51-2A31,31,0,0,1,40,13,64.31,64.31,0,0,0,53.19,9a3.07,3.07,0,0,1,.5-.13l.13.24c-1.13.67-2.23,1.41-3.41,2A41.91,41.91,0,0,1,37,14.67a6.7,6.7,0,0,0-4.86,2.55l.21.42A5.31,5.31,0,0,1,36,15.41c2.64-.42,5.29-.77,7.9-1.35,2.07-.47,4.08-1.25,6.24-1.74a26.07,26.07,0,0,1-2.46,1.62,19,19,0,0,1-7.17,1.86l-3.82.29a6.32,6.32,0,0,0-4.21,1.79l.18.36a5.18,5.18,0,0,1,4.16-1.68c1.52.09,3,.29,4.55.41.64.05,1.29,0,1.94.08a7.76,7.76,0,0,1-5,.52,11.27,11.27,0,0,0-3.12-.17,3.89,3.89,0,0,0-2.36,1.12l3,6.07-3.29-5.81a7.78,7.78,0,0,0-.81,1,4.63,4.63,0,0,1,.68-1.28l-.21-.36a7.34,7.34,0,0,0-.72,1,7.57,7.57,0,0,1,.63-1.2l-.23-.42a7.19,7.19,0,0,0-.54,1,14.19,14.19,0,0,0-.57,1.74l-.06.8a2.09,2.09,0,0,0,1.27.58,1.81,1.81,0,0,1-1.5-.29l-1.29-.67L28,21.4a1.8,1.8,0,0,1-1.54.31,2.5,2.5,0,0,0,1.16-.46l-.14-1.58a6.55,6.55,0,0,0-.37-1.08,7.35,7.35,0,0,0-.55-1l-.23.41A8.78,8.78,0,0,1,27,19.22a6.85,6.85,0,0,0-.73-1l-.2.36a4.23,4.23,0,0,1,.67,1.28,6.43,6.43,0,0,0-.81-1l-3.72,6.74,3.46-7a3.93,3.93,0,0,0-2.35-1.11,11.27,11.27,0,0,0-3.12.17,7.79,7.79,0,0,1-5-.52c.65-.07,1.3,0,1.94-.08,1.52-.12,3-.32,4.55-.41a5.21,5.21,0,0,1,4.16,1.66l.17-.35a6.26,6.26,0,0,0-4.2-1.78L18,15.8a18.89,18.89,0,0,1-7.17-1.86,24.84,24.84,0,0,1-2.46-1.62c2.16.49,4.16,1.27,6.24,1.74,2.6.58,5.26.93,7.9,1.35a5.31,5.31,0,0,1,3.62,2.21l.21-.42a6.69,6.69,0,0,0-4.84-2.53A41.84,41.84,0,0,1,8,11.12c-1.18-.57-2.28-1.31-3.42-2l.13-.24A2.93,2.93,0,0,1,5.25,9,64.22,64.22,0,0,0,18.42,13a31.1,31.1,0,0,1,5.72,1.6,5.85,5.85,0,0,1,2.49,2l.22-.45a6.72,6.72,0,0,0-3.31-2.39c-1.17-.4-2.4-.63-3.6-1-3.83-1-7.68-2-11.47-3.22a13,13,0,0,1-5.84-3.7c-.2-.23-.37-.48-.56-.72A19.68,19.68,0,0,0,8.73,8.33c3.16.91,6.38,1.61,9.57,2.41a23,23,0,0,1,7,2.65,7.69,7.69,0,0,1,2,1.82l.14-.27,1.66,1.38,0,1.36c0,.31.25.31.25,0l0-1.36L31,14.94l.15.31a7.32,7.32,0,0,1,2-1.86,22.92,22.92,0,0,1,7-2.65C43.33,9.94,46.55,9.24,49.7,8.33ZM27.37,17.9l-.1-1.08-.12-.23-.23.42A8.25,8.25,0,0,1,27.37,17.9Zm3.9-1.28a5.93,5.93,0,0,0-.29.56l-.11,1.29A6.56,6.56,0,0,1,31.5,17Z"/><path class="cls-1" d="M69.56,29.62H66.29V6.88h3.27Z"/><path class="cls-1" d="M75.89,29.9c-2.63,0-3.79-1.81-3.79-4V17c0-2.53,1.25-4,3.91-4h.58c2.72,0,3.61,1.56,3.61,3.58v2.93H77.05V17.21c0-.83-.06-1.38-.83-1.38s-.82.55-.82,1.35v8.41c0,.76.18,1.25.79,1.25s.86-.49.86-1.22V22.25H80.2V26c0,1.9-1,3.95-3.7,3.95Z"/><path class="cls-1" d="M82.52,23.29A3.37,3.37,0,0,1,84.08,20c.73-.46,2.38-1.22,2.84-1.47s.4-.27.4-.7v-1c0-.82-.22-1.07-.8-1.07h-.06c-.64,0-.82.31-.82,1v1.74H82.7V16.17c0-1.22.37-3.12,3.46-3.12h.61c3.15,0,3.7,1.53,3.7,3.24v9.78c0,.4.09.52.52.52h.58v3H88.45c-.7,0-1.07-.49-1.07-1.86a3.27,3.27,0,0,1-2.69,1.95H84.6a2.33,2.33,0,0,1-2.08-2.57Zm4.8-2a5.23,5.23,0,0,0-1.16.82,1.6,1.6,0,0,0-.43,1.32v2.26c0,.7.21,1.07.76,1.07s.83-.46.83-1.22Z"/><path class="cls-1" d="M96.82,29.62H93.55V13.17h3.21v2.08c.28-.61,1-2.17,2.51-2.17h.12A1.64,1.64,0,0,1,101.1,15v6H97.92V17.24c0-.7,0-1-.55-1s-.55.37-.55,1Z"/><path class="cls-1" d="M111.68,29.62h-3.15v-2a3.41,3.41,0,0,1-2.78,2h-.06c-1.32,0-2.17-1.37-2.17-2.78V13.17h3.27V25.49c0,.62.21,1.1.76,1.1s.86-.48.86-1.19V13.17h3.27Z"/><path class="cls-1" d="M114,26.53v-3h3.06v2.35c0,.86.27,1.13.82,1.13s.77-.39.77-1.13v-.27a3.17,3.17,0,0,0-.89-2.36l-1.93-2.2a5.87,5.87,0,0,1-1.62-4.25v-.46c0-2.08,1.07-3.45,3.55-3.45h.58c2.63,0,3.33,1.37,3.33,3v2.48h-2.93v-2c0-.64-.22-.91-.74-.91s-.7.36-.7,1v.27a2.35,2.35,0,0,0,.77,1.84l2,2.38c1.53,1.83,1.84,2.87,1.84,4.52V26c0,2-1,3.95-3.7,3.95h-.64C115,29.9,114,28.4,114,26.53Z"/><path class="cls-1" d="M129.62,25.34h-2.51l-.46,4.28h-3.09l2.79-22.74h4.09l3,22.74h-3.33Zm-1.29-11.8L127.45,22h1.8Z"/><path class="cls-1" d="M138.66,29.62h-3.27V13.17h3.21v2.08c.28-.61,1-2.17,2.51-2.17h.12A1.64,1.64,0,0,1,142.94,15v6h-3.17V17.24c0-.7,0-1-.56-1s-.55.37-.55,1Z"/><path class="cls-1" d="M148.75,29.62a1.79,1.79,0,0,1-2-2V16.29h-1.86V13.17h1.86V7.76h3.28v5.41H152v3.12h-1.92v9.42c0,.55.09.76.64.76H152v3.15Z"/></g></g></svg>